<?xml version="1.0" standalone="no"?>
<!DOCTYPE svg PUBLIC "-//W3C//DTD SVG 1.1//EN" "http://www.w3.org/Graphics/SVG/1.1/DTD/svg11.dtd" >
<svg xmlns="http://www.w3.org/2000/svg" xmlns:xlink="http://www.w3.org/1999/xlink" version="1.1">
<metadata>
Created by FontForge 20170731 at Tue Nov 18 11:14:09 2014
 By Aleksey,,,
Copyright (c) 2014 by Roland Hu:se. All rights reserved.
</metadata>
<defs>
<font id="wheatland" horiz-adv-x="500" >
  <font-face 
    font-family="wheatland"
    font-weight="400"
    font-stretch="normal"
    units-per-em="1000"
    panose-1="2 0 0 0 0 0 0 0 0 0"
    ascent="750"
    descent="-250"
    x-height="218"
    cap-height="708"
    bbox="-306 -493 1112 820"
    underline-thickness="50"
    underline-position="-150"
    unicode-range="U+0020-20AC"
  />
<missing-glyph 
 />
    <glyph glyph-name="d.terminal" unicode="d&#x20;" horiz-adv-x="677" 
d="M169 255q8 2 12 2q9 0 9 -5q0 -4 -10 -10q-48 -22 -75 -55.5t-27 -80.5t22.5 -67t47.5 -20q34 4 57 22.5t36.5 45.5t19 59t5.5 64q0 63 -21 127t-63 135q-39 9 -79 24q-20 7 -48 19t-54.5 28t-47 36.5t-24.5 44.5q0 17 15 21.5t31 4.5q37 0 71.5 -16.5t64 -40.5t53.5 -51
t40 -48q48 -10 101 -12.5t101 -2.5q53 0 107 5.5t118.5 20.5t144.5 41.5t185 68.5q8 4 21 4q8 0 8 -3q0 -2 -6 -8q-36 -18 -103 -45t-151 -51.5t-177 -42t-181 -17.5q-36 0 -76 3.5t-75 9.5q34 -58 57 -118t23 -126q0 -36 -8 -75.5t-27.5 -72t-52.5 -53.5t-83 -21
q-35 0 -61.5 21.5t-26.5 67.5q0 31 10.5 57t27.5 46.5t40 36t49 27.5zM161 504q-27 37 -52.5 61.5t-48 38t-41 19t-30.5 5.5q-5 0 -9 -3.5t-4 -6.5q0 -13 43.5 -44.5t141.5 -69.5z" />
    <glyph glyph-name="os" unicode="os" horiz-adv-x="454" 
d="M91 181q2 2 12.5 5.5t16.5 3.5q-2 8 -6 14t-12 10q-3 0 -8 -2t-10 -2q-8 0 -8 5q0 1 0.5 1.5t0.5 1.5q28 32 63.5 47.5t76.5 15.5q7 0 14 -0.5t15 -1.5l6 -1q36 -9 68 -29t56.5 -50t38.5 -67.5t14 -80.5q0 -19 -3.5 -40.5t-12.5 -39.5t-24.5 -30t-40.5 -12
q-28 0 -43.5 24t-15.5 53v8q2 6 8.5 11t14.5 5q7 0 9 -11t5 -25t11 -26.5t27 -15.5q10 0 16 10.5t9 24.5t4 28.5t1 23.5q0 43 -13 83.5t-37.5 71t-61 49t-84.5 18.5q-41 0 -74 -27q24 -2 35 -30.5t11 -81.5q0 -25 -5 -53.5t-15.5 -52.5t-27 -40t-38.5 -16q-26 0 -43.5 23.5
t-17.5 58.5q0 40 20.5 76t47.5 63zM96 -18q8 0 14.5 11.5t11 29.5t7 40.5t2.5 44.5q0 21 -2 40.5t-7 32.5q-12 -12 -23.5 -30t-20.5 -39t-15 -42t-6 -39q0 -20 8.5 -33.5t30.5 -15.5z" />
    <glyph glyph-name="th" unicode="th" horiz-adv-x="532" 
d="M988 465q16 -2 21.5 -5.5t5.5 -7.5t-3.5 -6t-7.5 -2q-80 9 -186 14t-218 5q-86 0 -167 -3q-21 -60 -41.5 -120t-39.5 -121q-8 -26 -18 -53t-14 -54q6 14 14.5 37t21 45t29 38.5t36.5 16.5q11 0 17.5 -13t11 -32.5t8.5 -42.5t11 -42.5t18 -32.5t29 -13q9 1 16.5 6t14 11.5
t13.5 14t15 14.5q5 5 12.5 6t15.5 1q5 0 5 -3q0 -2 -4.5 -6t-6.5 -6q-23 -23 -44 -40t-56 -17q-20 0 -33 12t-21 30.5t-12.5 39.5t-8.5 39.5t-8.5 30.5t-11.5 12q-3 0 -7.5 -9.5t-9.5 -22.5t-10.5 -27.5t-9.5 -23.5q-5 -12 -11 -27t-14.5 -28.5t-20 -23t-27.5 -9.5
q-8 0 -10.5 8t-2.5 18q0 15 4.5 35t10.5 39.5t11.5 36l8.5 25.5q20 64 41 125.5t43 124.5l-59 -3l-127 -206q-9 -15 -23.5 -41.5t-31.5 -58t-36 -64t-37.5 -59t-35.5 -43t-31 -16.5q-6 0 -8 2l-3 3q3 26 12.5 59t21.5 67.5t24 66.5t20 56q18 54 37 108l38 108
q-42 -5 -85 -11.5t-85 -17.5q-33 -23 -68.5 -40.5t-73.5 -28.5q-8 -2 -11 -2h-5t-5 2q-3 3 -3.5 4.5t-0.5 2.5q0 2 4 6q32 24 69.5 41t77.5 28q47 35 88 78t68 78q13 18 33.5 46.5t40.5 55.5t37 46.5t23 19.5t14 -6q2 -2 2 -5q-5 -49 -20.5 -97t-30.5 -95l-27 -81q26 3 55 6
t61 5l25 41q12 20 31 52t41 63t43.5 53.5t38.5 22.5q7 0 8 -3.5t1 -9.5q0 -15 -4 -32t-10 -34.5t-12 -33.5t-10 -28l-29 -84q76 3 157 3q105 0 205.5 -5t185.5 -13zM54 31q37 64 67 116.5t58.5 101.5t58.5 98t66 106q-30 -2 -57.5 -4.5t-52.5 -5.5l-72 -211
q-7 -19 -16 -43.5t-18.5 -51.5t-18.5 -54t-15 -52zM21 434q37 8 73 13t71 10q40 115 72 234q-43 -68 -96.5 -135.5t-119.5 -121.5zM405 479l6 16q14 36 26 74t23 76q-22 -31 -42 -62.5t-39 -62.5l-27 -44zM-117 368q0 -1 6 1.5t13 6t13.5 6.5t6.5 5q-2 0 -8 -2.5t-13 -6
t-12.5 -6.5t-5.5 -4z" />
    <glyph glyph-name="tt" unicode="tt" horiz-adv-x="558" 
d="M-53 373q-9 0 -9 4q0 5 16 11t41.5 12.5t57 13t63 12t59 10.5t45.5 8q11 29 26 67.5t31.5 73t34 58.5t32.5 24q4 0 9 -3l1 -3q-2 -35 -17 -72t-30 -68l-31 -67q54 9 106.5 17t111.5 16q13 30 25.5 60t24.5 61q2 2 12 7.5t18 5.5q7 0 7 -7q-12 -31 -23.5 -61t-22.5 -61
q42 5 82.5 9t75.5 4q3 0 16.5 -1.5t28 -4.5t26.5 -7t12 -9q0 -14 -4.5 -28.5t-26.5 -14.5q-8 0 -9 5l2 25q-24 7 -47.5 9.5t-46.5 2.5q-29 0 -58 -3t-58 -7q-29 -80 -51 -159q-8 -27 -16.5 -60.5t-15.5 -68t-11.5 -65.5t-4.5 -52q0 -20 5.5 -39.5t23.5 -19.5q6 0 17 4.5
t28 16.5t40 33t54 54q8 8 15.5 9t14.5 1q5 0 5 -3q0 -2 -3 -6q-54 -60 -98 -96t-86 -36q-20 0 -37.5 15t-17.5 53q0 18 3 41t6.5 43.5t6.5 35.5t4 18q5 26 11.5 52.5t14.5 52.5q-33 -67 -65 -122t-62.5 -94.5t-59 -61t-55.5 -21.5q-9 0 -20.5 3t-22 11t-17.5 21.5t-7 33.5
q0 16 2 34.5t4.5 35.5t5 30t3.5 16q4 24 12 51q-11 -17 -25.5 -40t-30 -43.5t-29.5 -34.5t-22 -14q-6 0 -12 2q-3 1 -3 4q0 2 3 5q44 44 80 107t70 124q7 20 13.5 41t14.5 41q-66 -12 -131 -25t-131 -27h-4zM229 363q-25 -69 -44 -140t-19 -143q0 -9 0.5 -20t3.5 -20.5
t8.5 -16t14.5 -6.5q23 0 50.5 28t56.5 71.5t57 96.5t53 103t44.5 91t30.5 61q-55 -7 -109.5 -15.5t-109.5 -18.5z" />
    <glyph glyph-name="ox" unicode="ox" horiz-adv-x="495" 
d="M425 195q2 2 12 5.5t17 3.5q5 0 5 -3q0 -2 -3 -6q-21 -21 -33 -31.5t-19.5 -17.5t-14.5 -14t-19 -20l-9 -10q4 -19 8 -36t9.5 -30t12.5 -21t17 -9h7q15 3 30.5 16.5t31 31l31 35t29.5 28.5q7 5 12.5 7t14.5 2q5 0 5 -3t-8.5 -13t-19.5 -22t-23 -23.5t-18 -18.5
q-32 -34 -52.5 -51.5t-44.5 -17.5q-23 0 -41 22t-31 74l-19 -20q-31 -32 -50.5 -53t-36.5 -47q-2 -2 -12 -7t-17 -5q-6 0 -6 5q0 2 1 4q23 29 43.5 52.5t46.5 50.5l45 47q-6 29 -13.5 55.5t-22 46.5t-37.5 31.5t-60 11.5q-16 0 -32 -3.5t-31 -11.5q23 -8 31 -36t8 -72
q0 -24 -5 -52.5t-15 -53t-26.5 -40.5t-38.5 -16q-26 0 -43.5 23.5t-17.5 58.5q0 20 8.5 46t22 48.5t31 38t35.5 15.5q-2 8 -6 14t-12 10q-2 -1 -7.5 -2.5t-10.5 -1.5q-8 0 -8 5q0 2 1 3q32 27 65 37.5t63 10.5q40 0 65.5 -10t42 -28t25.5 -43.5t17 -56.5q9 10 16.5 17.5
t15.5 15t17 15.5t21 19zM89 -19q14 0 22 16t12.5 37t6 42t1.5 32q0 46 -9 73q-12 -12 -23.5 -30t-21 -39t-15.5 -42t-6 -39q0 -19 8 -34.5t25 -15.5z" />
    <glyph glyph-name="ll" unicode="ll" horiz-adv-x="553" 
d="M268 486q-34 -88 -82.5 -168.5t-99.5 -168.5q-2 -10 -2 -19.5v-19.5q0 -8 0.5 -25t5 -34.5t13.5 -31t26 -13.5q33 0 69 29t69.5 69t62 82t48.5 68q15 54 31 102.5t39 100.5q6 14 15.5 34t22 39t27.5 32t32 13q10 0 12.5 -13.5t2.5 -22.5q0 -32 -16 -64t-29 -57
q-19 -36 -45.5 -77t-56.5 -83q-11 -42 -19.5 -85t-8.5 -73q0 -40 14.5 -59t39.5 -19q29 0 70.5 24t80.5 68q5 5 11.5 8.5t19.5 3.5q5 0 5 -3q0 -4 -2 -6q-22 -23 -37.5 -39t-39.5 -36q-9 -8 -23 -16.5t-30.5 -15t-34.5 -11t-36 -4.5q-15 0 -28 3.5t-23 14t-15.5 30.5
t-5.5 52q0 21 1.5 41.5t6.5 43.5q-24 -34 -48.5 -64.5t-54.5 -61.5q-11 -11 -26 -23.5t-32 -23t-35.5 -18t-36.5 -7.5q-27 0 -43 11.5t-24 29t-10.5 38t-2.5 37.5q0 44 11 91t24 88q13 43 30 91.5t38 95t47 89t58 74.5q5 2 11.5 5.5t13.5 3.5q6 0 9.5 -4.5t5.5 -11.5t3 -14
t1 -13q0 -27 -11 -55.5t-19 -51.5zM153 384q-15 -39 -29.5 -80.5t-25.5 -83.5q23 37 49.5 82t49.5 93.5t40 100t22 101.5q-36 -48 -60.5 -103t-45.5 -110zM520 528q-8 -11 -19.5 -32.5t-23 -46t-21 -50t-14.5 -45.5q29 47 49.5 92t28.5 82z" />
    <glyph glyph-name="oi" unicode="oi" horiz-adv-x="439" 
d="M92 181q2 2 12.5 5.5t16.5 3.5q-2 8 -6 14t-12 10q-2 -1 -7.5 -2.5t-10.5 -1.5q-8 0 -8 5q0 2 1 3q23 24 60.5 41t80.5 17q18 0 38.5 -3.5t38 -13t29 -25.5t11.5 -40q0 -20 -5 -41.5t-11 -43t-11 -40.5t-5 -34q0 -28 23 -31q22 0 44 13.5t42 32t37.5 38t29.5 30.5
q10 8 26 8q6 0 6 -4q0 -3 -4 -8q-19 -18 -39.5 -41t-45 -43.5t-52.5 -34t-62 -13.5q-23 0 -31.5 13.5t-8.5 33.5q0 19 5.5 43t12.5 46.5t12.5 41.5t5.5 30q0 23 -12 36.5t-29 21t-35.5 9.5t-31.5 2q-17 0 -34.5 -5t-37.5 -20q46 -3 46 -112q0 -24 -5 -52.5t-15.5 -53
t-27 -40.5t-38.5 -16q-26 0 -43.5 23.5t-17.5 58.5q0 39 20.5 75.5t47.5 63.5zM97 -18q8 0 14.5 11.5t11 29.5t7 40.5t2.5 44.5q0 46 -9 73q-12 -12 -23.5 -30t-21 -39t-15.5 -42t-6 -39q0 -20 9 -33.5t31 -15.5zM273 418q-1 2 -1 7q0 16 16 22l16 6q2 0 3.5 0.5t3.5 0.5
q16 0 16 -15v-58q0 -8 -4.5 -14.5t-10.5 -6.5t-13.5 5.5t-9.5 13.5z" />
    <glyph glyph-name="bs" unicode="bs" horiz-adv-x="502" 
d="M513 205q-10 -11 -29 -24t-62 -27l20 -40t10 -40q0 -16 -9.5 -31.5t-24.5 -28t-33 -20t-36 -7.5q-24 0 -39 12t-15 33q0 17 11 30t34 13q6 0 6 -3q0 -2 -7.5 -12t-7.5 -21q0 -19 13 -24.5t23 -5.5q19 0 31.5 14.5t14.5 37.5v6q0 20 -11 38.5t-20 37.5q-46 -10 -99 -11h-8
q-4 -30 -20 -60.5t-39 -55.5t-51.5 -41t-57.5 -16q-32 0 -50.5 22t-18.5 70q0 39 9 77t26 81l19 47q14 36 29.5 75t31.5 75q9 22 23.5 58t31.5 70.5t36 59.5t38 25q2 0 6.5 -1t8.5 -5q2 -2 2 -5q-8 -40 -27.5 -93t-46 -107t-56 -103.5t-56.5 -82.5l-11 -31q-11 -29 -19 -59
t-8 -63v-4q0 -11 1 -26t5 -29t12.5 -24t23.5 -10q25 0 46.5 16.5t37.5 41.5t25.5 53.5t10.5 52.5q-13 5 -25.5 18.5t-12.5 27.5t10 21.5t24 7.5t22.5 -6.5t13.5 -15.5t6.5 -19t1.5 -17q17 -5 30 -5h19q31 0 51 4q-4 11 -4 26q0 21 9.5 36t24.5 24.5t33.5 14t36.5 4.5
t30.5 -9.5t12.5 -24.5q0 -11 -7 -22zM417 166q7 3 18.5 8t23 12t20 15t8.5 16q0 6 -4 13.5t-19 9.5h-6q-20 0 -34 -12t-14 -32q0 -14 7 -30zM161 345q26 48 48 98t36 94q-17 -31 -29 -62.5t-26 -62.5z" />
    <glyph glyph-name="wh" unicode="wh" horiz-adv-x="1039" 
d="M121 313q2 2 12 7.5t18 5.5q7 0 7 -7q-22 -35 -39 -67.5t-28 -65.5t-17.5 -67.5t-7.5 -74.5q2 -8 6.5 -10t14.5 -2q19 10 36.5 32t32.5 48t26.5 53t18.5 47q2 6 11 11.5t17 5.5q7 0 10 -4q9 -33 20.5 -62t27.5 -54t38.5 -45.5t54.5 -36.5q11 -3 20.5 -5t18.5 -2
q29 0 50.5 18t21.5 60q0 30 -11 61.5t-26 63t-30.5 62.5t-23.5 60q-5 18 -9.5 37t-4.5 39q0 16 4.5 30.5t15.5 28.5q10 12 33 27t50.5 30t55 27t47.5 18q15 4 34.5 9.5t42 9.5t46 7t45.5 3q44 0 71 -18t27 -70q0 -23 -3.5 -45.5t-6.5 -39.5q-9 -44 -19.5 -81t-23.5 -72
t-29 -70t-36 -74q7 8 25 24.5t40 33t45 29t39 12.5q11 0 17 -7q18 -21 26 -47t13.5 -51.5t11 -49.5t18.5 -40q3 -3 9 -3q10 0 23.5 9t27 21.5t26 26t21.5 22.5q3 3 10 4t13 1q7 0 7 -3q0 -1 -2 -5q-16 -17 -33 -34.5t-35 -31.5t-37 -23.5t-37 -9.5q-27 0 -38 26t-18 64
q-2 11 -5.5 29t-9 35.5t-13.5 30.5t-19 13q-4 0 -6 -1q-26 -13 -49.5 -34t-45 -45.5t-41 -51t-37.5 -50.5q-11 -16 -22.5 -23t-18.5 -7q-6 0 -6 5q0 2 1 4q28 51 60 113t58.5 127.5t44 131t17.5 122.5q0 48 -27.5 67.5t-69.5 19.5t-91.5 -14.5t-92.5 -34.5t-73.5 -40.5
t-34.5 -32.5q-13 -17 -13 -43t10 -55.5t23.5 -60.5t27.5 -60.5t21 -53.5q6 -21 16.5 -51.5t10.5 -57.5q0 -22 -13 -39t-32.5 -29t-43 -18t-45.5 -6q-35 0 -63 15.5t-50 40t-38 54.5t-26 59q-14 -28 -28.5 -55.5t-33.5 -49.5t-44 -36.5t-59 -15.5q-2 0 -12 3t-11 17
q2 42 7.5 77t16.5 67t28 65.5t41 72.5z" />
    <glyph glyph-name="wr" unicode="wr" horiz-adv-x="702" 
d="M127 336q2 2 12 7.5t18 5.5q7 0 7 -7q-17 -31 -33.5 -64.5t-29 -68.5t-20 -71t-7.5 -72q4 -29 15 -36.5t20 -9.5q49 0 75 32t37 77q3 5 11.5 10t16.5 5q7 0 10 -3q0 -32 10.5 -66.5t35.5 -55.5q3 -3 8 -3q16 0 23 18.5t7 49.5q0 42 -10 82t-24 79q3 9 21 9
q21 0 54.5 -6.5t64.5 -6.5q-10 18 -10 35t12.5 26.5t26.5 9.5q20 0 31.5 -10.5t11.5 -28.5q0 -7 -3.5 -19t-8.5 -23q12 -10 29.5 -18.5t34.5 -17.5t29 -19.5t12 -22.5t-7 -24t-10 -20q-9 -20 -14.5 -38t-5.5 -38q0 -12 2 -22t12 -10q13 0 34.5 14.5t44.5 34t43.5 39
t31.5 30.5q5 5 11.5 5.5t13.5 0.5q5 0 5 -3q0 -2 -3 -6l-74 -73q-27 -27 -61.5 -45t-67.5 -18q-14 0 -23 8.5t-9 29.5q0 17 4.5 32.5t11 30l13 29t10.5 29.5q0 16 -32 35t-78 45q-7 -2 -13 -2h-14q-11 0 -27 1t-45 4q-2 0 -4 0.5t-4 0.5q11 -32 18 -60.5t7 -64.5
q0 -43 -21 -73t-63 -30q-29 0 -46 21t-26 54q-20 -28 -54.5 -50t-73.5 -22q-29 0 -46.5 13.5t-17.5 46.5q0 36 8 72.5t20.5 72t29 69.5t33.5 64zM476 269q0 -8 2 -13t3 -5t6 5.5t5 15.5q0 8 -9 8q-7 0 -7 -11z" />
    <glyph glyph-name="t.terminal" unicode="t&#x20;" horiz-adv-x="692" 
d="M34 455q-19 5 -26.5 8.5t-7.5 6.5q0 4 8 5.5t19 1.5q7 0 14.5 -1t14.5 -3q31 -7 76 -11t107 -4q14 31 28 63t33 67q2 2 12 7t17 5t8 -6q-6 -21 -22 -56.5t-36 -79.5q49 0 111 3q53 3 112 12t129.5 26t155 45.5t189.5 70.5q8 4 21 4q8 0 8 -3q0 -2 -6 -8q-36 -18 -105 -45
t-155 -53t-181 -45.5t-183 -22.5q-29 -1 -53 -2.5t-53 -2.5q-18 -39 -36 -81t-32.5 -83.5t-23.5 -80t-9 -71.5q0 -29 8.5 -51.5t28.5 -36.5q3 -2 3 -4q0 -4 -7 -11t-16 -7q-5 0 -9 3q-2 1 -4.5 4t-3.5 4q-19 20 -24.5 40.5t-5.5 33.5q0 26 3 53t8 49q4 26 11 50l-37 -61
q-12 -20 -22.5 -34t-22.5 -28q-14 -17 -24 -21t-16 -4t-6 5q0 2 1 4q42 50 72 94t52.5 83.5t39.5 76.5t33 74q-34 1 -80.5 5t-115.5 13z" />
    <glyph glyph-name="wn" unicode="wn" horiz-adv-x="766" 
d="M364 38q-14 -20 -27 -30.5t-37 -12.5q-29 0 -46 20.5t-26 54.5q-20 -28 -54.5 -50t-73.5 -22q-29 0 -46.5 13.5t-17.5 46.5q0 36 8 72.5t20.5 72t29 69.5t33.5 64q2 2 12 7.5t18 5.5q7 0 7 -7q-17 -31 -33.5 -64.5t-29 -68.5t-20 -71t-7.5 -72q4 -29 15 -36.5t20 -9.5
q49 0 75 32t37 77q3 5 11.5 10t16.5 5q7 0 10 -19t7 -42.5t12.5 -42.5t28.5 -19q14 0 26 16.5t24 41.5t25.5 54t31.5 54.5t41.5 43t54.5 19.5q15 0 25 -9.5t10 -29.5q0 -5 -0.5 -10t-1.5 -10q-9 -38 -16 -68.5t-18 -60.5q14 16 30.5 36t34.5 38t38 30.5t41 14.5q8 0 10.5 -8
t2.5 -20q0 -15 -2.5 -32t-2.5 -25q0 -11 1.5 -22.5t5 -21.5t9.5 -16t16 -6q15 0 33.5 13.5t36.5 30t31.5 31.5t18.5 17q5 3 12.5 3.5t12.5 0.5q2 0 3 -1.5t-1 -3.5q-4 -4 -20 -22t-38 -38t-47.5 -35.5t-49.5 -15.5q-39 1 -50 19.5t-11 47.5q0 17 1.5 36t1.5 36q0 5 -3 5
q-8 0 -21.5 -14t-30 -34.5t-34.5 -45t-35 -45t-33 -34.5t-27 -14q-6 0 -7 3q9 18 21.5 50t23.5 67.5t18.5 70.5t7.5 60q0 11 -6 11q-22 -1 -41.5 -24t-37 -54t-32 -63t-26.5 -50z" />
    <glyph glyph-name=".notdef" 
 />
    <glyph glyph-name=".null" horiz-adv-x="0" 
 />
    <glyph glyph-name="nonmarkingreturn" 
 />
    <glyph glyph-name="space" unicode=" " 
 />
    <glyph glyph-name="space" unicode="&#xa0;" 
 />
    <glyph glyph-name="exclam" unicode="!" horiz-adv-x="205" 
d="M228 679q2 6 11 11.5t17 5.5q7 0 10 -4q0 -8 -7 -29.5t-16 -44.5t-17 -43l-10 -25q-19 -54 -36.5 -107t-33.5 -108q-13 -45 -26.5 -90.5t-13.5 -93.5q0 -14 7 -21t7 -5q0 -4 -7.5 -5.5t-9.5 -1.5q-13 5 -16 15.5t-3 21.5v13q1 15 4 33.5t7 38.5t9 40.5t11 38.5
q28 96 55.5 184t57.5 176zM68 40q-1 1 -1 5q0 5 4.5 9t12.5 6l13 3q2 0 6 1t6 1q8 0 13 -5.5t5 -10.5v-36q0 -6 -5 -10.5t-11 -4.5q-7 0 -17 5t-12 11z" />
    <glyph glyph-name="quotedbl" unicode="&#x22;" horiz-adv-x="369" 
d="M191 713q2 5 12 10.5t18 5.5t8 -6q-4 -21 -7.5 -51.5t-11 -59.5t-20.5 -49.5t-34 -20.5q-6 0 -6 5q0 2 1 4q10 18 16 38t10 41t7 42t7 41zM291 713q2 5 12 10.5t18 5.5t8 -6q-4 -21 -7.5 -51.5t-11 -59.5t-20.5 -49.5t-34 -20.5q-6 0 -6 5q0 2 1 4q10 18 16 38t10 41
t7 42t7 41z" />
    <glyph glyph-name="numbersign" unicode="#" horiz-adv-x="632" 
d="M122 325q-10 0 -13.5 4t-2 9t6 9t9.5 4q47 5 93.5 5.5t92.5 -1.5q19 41 42 77q0 5 6.5 7.5t14 2.5t14 -2.5t6.5 -7.5q-26 -36 -46 -79q12 -1 23.5 -1.5t23.5 -1.5q6 11 12.5 21t13.5 21q7 3 13 5q5 2 9.5 1t4.5 -6q0 -25 -3 -47q18 -2 35.5 -3.5t34.5 -3.5q10 0 13 -4
t2 -9.5t-5.5 -9.5t-9.5 -4h-38.5t-37.5 -1q-2 -10 -5 -19.5t-5 -19.5h59q10 0 13 -4t2 -9.5t-5.5 -9.5t-9.5 -4h-67q-7 -20 -13.5 -39.5l-13.5 -40.5q0 -8 -11 -10.5t-16 -3.5q4 25 9.5 48t11.5 46h-30q-24 -38 -49 -75.5t-50 -72.5q-5 0 -12 -2t-13 -3t-10.5 -0.5t-4.5 5.5
q13 35 25 72.5t25 75.5h-171q-20 11 -15.5 19t15.5 8q49 20 99 32t101 20q1 2 1 3t1 3q-42 2 -86 1.5t-89 -5.5zM275 271q5 14 10 26q-35 -5 -68.5 -11t-65.5 -15h124zM345 271q5 8 10.5 17t10.5 18q-11 -1 -21.5 -1.5t-21.5 -2.5q-3 -8 -5.5 -15.5t-5.5 -15.5h33zM280 172
q25 34 48 72h-25q-6 -18 -11.5 -36t-11.5 -36zM395 308q-5 -10 -11 -19l-12 -18h21q2 9 5 18.5t5 18.5h-8z" />
    <glyph glyph-name="dollar" unicode="$" horiz-adv-x="400" 
d="M599 635q0 -34 -19.5 -45t-43 -5.5t-43 24t-19.5 44.5q-14 -26 -39.5 -74.5t-59.5 -111.5q0 -34 2 -67.5t2 -65.5q0 -62 -14.5 -122t-64.5 -120q-14 -17 -35.5 -33.5t-47 -30.5t-54 -24t-56.5 -13q-17 -28 -29.5 -46t-19.5 -25q-22 -20 -32.5 -25.5t-14.5 -3.5
q-5 2 -4 11q6 11 14 24q7 11 17 27.5t22 37.5q-35 5 -61.5 29t-26.5 68q0 29 13.5 56.5t33.5 49t43.5 34.5t43.5 13q9 0 9 -4q0 -7 -16 -13q-48 -19 -67 -54t-19 -83q0 -33 19 -49.5t44 -21.5q25 42 56 94t65.5 109.5t70 117.5t70.5 117v23q0 23 2 49t13 61q6 21 20 42
t32.5 38.5t41 29.5t45.5 15q11 18 18 30t9 17q15 5 11.5 -9.5t-11.5 -37.5q13 -2 27 -7.5t26 -15t19.5 -23t7.5 -31.5zM345 331q0 20 -1 38t-3 36q-28 -51 -57 -104.5t-57.5 -104.5t-55.5 -97.5t-49 -83.5q58 6 100.5 37.5t69.5 77t40 98.5t13 103zM384 575q-4 -19 -6 -33
t-3 -26q32 53 58.5 98t46.5 78q-42 -11 -64.5 -44t-31.5 -73zM558 635q0 24 -11.5 39.5t-34.5 19.5q-6 -17 -9.5 -33t0.5 -27q3 -9 11 -16.5t17.5 -9.5t17 3.5t9.5 23.5z" />
    <glyph glyph-name="uni0025" unicode="%" horiz-adv-x="754" 
d="M271 362q5 0 1.5 -2t-10 -3t-12.5 -0.5t-6 5.5q-5 20 -14.5 32.5t-21 15t-23.5 -5.5t-22 -28q-5 -10 -9.5 -22t-7 -25t-2 -25t5.5 -22q10 -26 24 -32.5t29 -1.5t29.5 18.5t24.5 28.5q21 29 34.5 61t16 61.5t-7 55.5t-33.5 43q-33 7 -63 21q6 3 13 6q5 2 12 4.5t12 3.5h3
q37 -6 62 -24q90 -23 180 24h27q-25 -66 -56 -127.5t-61.5 -123.5t-56.5 -126t-41 -135q-12 -3 -21 -5q-8 -2 -14 -1t-6 6q15 64 40.5 125.5t54.5 122t59.5 119.5t55.5 118q-69 -21 -139 -17q22 -26 25 -60.5t-15 -70.5q-10 -25 -25 -49.5t-34 -45t-41.5 -34.5t-47.5 -19
q-35 -5 -55.5 9.5t-26.5 38.5t1 52t27 48q15 20 38 33.5t44.5 14.5t37 -13t15.5 -49zM540 228q0 -10 -6.5 -15.5t-14 -6.5t-13.5 1t-6 7q0 13 -4 25t-9 23q-11 -23 -19.5 -47.5t-8.5 -53.5q0 -20 9 -28.5t21.5 -8.5t26.5 6.5t24 16.5q20 20 37 48.5t17 58.5q5 15 2.5 23.5
t-10 11t-19.5 0.5t-27 -7q-5 0 -9.5 4t-5.5 9.5t2 9.5t13 4q15 10 33.5 12.5t35 -3t27.5 -18t11 -32.5q-10 -41 -30 -77.5t-50 -56.5q-15 -10 -36 -19t-41.5 -11.5t-36.5 4t-21 26.5q-10 15 -8.5 36.5t9 44t18.5 44t21 36.5q0 11 8.5 12.5t19.5 1.5q40 -40 40 -81zM500 295
q-1 -2 -1.5 -4t-1.5 -4q3 3 3 8z" />
    <glyph glyph-name="ampersand" unicode="&#x26;" horiz-adv-x="559" 
d="M577 -83q2 0 2 -3q0 -6 -9 -10t-17 -4q-4 0 -8 2q-27 20 -55.5 41.5t-55.5 45.5q-13 -10 -26 -18.5t-25 -13.5q-35 -16 -73 -27t-80 -11q-34 0 -65 11t-54.5 31.5t-37.5 48.5t-14 63q0 37 13 74.5t35.5 74t52 72t61.5 69.5q3 51 14 112t34.5 113.5t60.5 88t91 35.5
q25 0 40.5 -12.5t15.5 -39.5q0 -26 -14 -55t-34.5 -56t-42 -50t-36.5 -37q-22 -21 -46.5 -44.5t-49.5 -49.5v-27q0 -58 6 -104t15.5 -85t22.5 -73.5t28 -69.5q0 -6 -11 -6q-13 0 -19 6q-5 4 -11 15t-12.5 25t-12 27.5t-7.5 21.5q-9 34 -15.5 62.5t-10.5 55.5t-5.5 53
t-1.5 56v5q-26 -29 -49 -59.5t-40 -62t-27.5 -63t-10.5 -61.5q0 -16 7.5 -40.5t25 -48t47 -40t74.5 -16.5t91 17t81 48q-39 37 -65 78t-26 86q0 39 24 58t57 19q25 0 44.5 -12.5t33 -30.5t20 -38.5t6.5 -36.5q0 -32 -15.5 -61.5t-38.5 -53.5q29 -28 60 -51.5t58 -43.5z
M412 690q-33 0 -60 -24t-46.5 -64t-32.5 -93t-17 -110l65 63q19 17 40 38.5t38.5 46t29 51t11.5 53.5q0 22 -8 30.5t-20 8.5zM364 190q0 -47 22.5 -87t55.5 -75q16 20 25 42t9 47q0 17 -7 36.5t-19 36t-27.5 27.5t-31.5 11q-11 0 -19 -13t-8 -25z" />
    <glyph glyph-name="quotesingle" unicode="'" horiz-adv-x="286" 
d="M186 713q2 5 12 10.5t18 5.5t8 -6q-4 -21 -7.5 -51.5t-11 -59.5t-20.5 -49.5t-34 -20.5q-6 0 -6 5q0 2 1 4q10 18 16 38t10 41t7 42t7 41z" />
    <glyph glyph-name="parenleft" unicode="(" horiz-adv-x="392" 
d="M430 665q10 0 11 -2t-2.5 -4.5t-10 -4.5t-11.5 -2q-25 -5 -50 -23.5t-47.5 -43.5t-42.5 -54t-35 -54q-31 -51 -59.5 -116t-48.5 -126q-6 -17 -16 -51t-17.5 -75t-10 -83.5t6 -76t30 -52t61.5 -11.5q10 5 13 3.5t0.5 -5.5t-9.5 -8t-17 -4q-47 -7 -73.5 12t-37 53t-9 78.5
t9.5 88.5t20.5 82.5t22.5 62.5q26 65 55 134.5t66.5 128.5t86 101t114.5 52z" />
    <glyph glyph-name="parenright" unicode=")" horiz-adv-x="308" 
d="M159 649q-10 0 -15 4t-5 9.5t5 9.5t15 4q43 3 70 -12t41 -42t18 -62t1 -72t-9.5 -72t-13.5 -62q-15 -56 -35.5 -121t-49.5 -128t-67.5 -118.5t-89.5 -90.5q-5 -5 -13.5 -5.5t-15 2t-7.5 7.5t9 10q45 30 81 78t64 103.5t48.5 113.5t35.5 108q3 20 9.5 54t11.5 72.5
t5.5 77.5t-8 69.5t-28.5 48t-57 14.5z" />
    <glyph glyph-name="asterisk" unicode="*" horiz-adv-x="411" 
d="M104 550q-10 -5 -15 -5.5t-5 2t5 7t15 9.5q37 12 78 15q-6 17 -11.5 33t-12.5 33q11 3 20 5q8 2 14 1t6 -6q5 -9 8.5 -18.5t7.5 -18.5l12 18t13 19q11 3 20 5q8 2 14 1t6 -6q-12 -15 -22.5 -30.5t-21.5 -31.5q32 1 63.5 2t61.5 6q20 0 13 -6.5t-27 -6.5q-29 -5 -57.5 -6
t-57.5 -3q11 -23 24.5 -42t36.5 -30q5 -5 1.5 -10t-11 -8.5t-16.5 -6t-14 -2.5q-17 12 -28.5 27.5t-20.5 33.5q-16 -26 -30 -52t-28 -49q-5 -5 -12.5 -7t-13.5 -4q-8 -2 -15 -2q20 39 40 75t43 73v2q-21 -2 -41.5 -5.5t-41.5 -10.5z" />
    <glyph glyph-name="plus" unicode="+" horiz-adv-x="449" 
d="M112 286q-10 0 -13 4t-0.5 9.5t10 9.5t17.5 4q20 4 41.5 4.5t42.5 -1.5q11 46 21.5 91.5t15.5 93.5q0 5 6 9.5t13.5 7t14 2t6.5 -5.5q-5 -51 -16.5 -100.5t-22.5 -100.5q22 -2 39.5 -2.5t28.5 2.5h23t23 -1.5t13 -4.5t-7 -8q-30 -10 -61.5 -12t-63.5 0q-10 -45 -16.5 -88
t-6.5 -88q-11 -3 -20 -5q-8 -2 -14 -1t-6 6q0 46 6.5 90t17.5 88q-24 1 -47 0.5t-45 -3.5z" />
    <glyph glyph-name="comma" unicode="," horiz-adv-x="168" 
d="M61 29q2 5 12 10.5t18 5.5t8 -6q-10 -47 -22 -93t-21 -93q-3 -5 -9.5 -10.5t-14.5 -5.5t-9 5q9 48 19 94t19 93z" />
    <glyph glyph-name="hyphen" unicode="-" horiz-adv-x="498" 
d="M174 264q-5 -5 -11.5 -5.5t-10 2t-2.5 7.5t11 10q30 10 62.5 13.5t65 3.5t65 -2t62.5 -2q10 0 11 -4t-2.5 -9.5t-10 -9.5t-11.5 -4q-30 0 -60.5 4t-59.5 6.5t-56.5 1t-52.5 -11.5z" />
    <glyph glyph-name="period" unicode="." horiz-adv-x="186" 
d="M60 40q-1 1 -1 5q0 5 4.5 9t12.5 6l13 3q2 0 6 1t6 1q8 0 13 -5.5t5 -10.5v-36q0 -6 -5 -10.5t-11 -4.5q-7 0 -17 5t-12 11z" />
    <glyph glyph-name="slash" unicode="/" horiz-adv-x="436" 
d="M24 -39q-5 -5 -12 -8t-12 -3t-6.5 3t3.5 8q37 33 78.5 92t85 131t87.5 151t86.5 152t81.5 134.5t73 98.5q5 5 12.5 7.5t12.5 3t7 -1.5t-3 -7q-34 -37 -72 -98.5t-79.5 -135t-85 -152.5t-87.5 -151t-87 -131.5t-83 -92.5z" />
    <glyph glyph-name="zero" unicode="0" horiz-adv-x="272" 
d="M186 349q23 10 39 10q12 0 18.5 -5t10 -12.5t4.5 -15t1 -13.5q0 -45 -15.5 -88.5t-37.5 -81.5q-9 -16 -21 -33t-27 -31t-33.5 -23t-40.5 -9q-17 0 -27 10.5t-10 34.5q0 21 8.5 57t25.5 74.5t43 73t62 52.5zM200 336q-30 -20 -58.5 -66t-45.5 -110q-3 -11 -6 -27.5
t-3 -32.5q0 -14 3.5 -23t13.5 -9q1 0 9 2q25 16 44.5 44t33 61t21 67t7.5 63v8.5t-1 11.5t-3.5 10t-6.5 4t-8 -3z" />
    <glyph glyph-name="one" unicode="1" horiz-adv-x="183" 
d="M114 363q2 6 12 11.5t18 5.5t8 -7q-14 -40 -23.5 -81t-20.5 -82q-12 -45 -24.5 -91t-14.5 -93q-3 -5 -12 -10t-17 -5t-9 5q3 48 15 93.5t24 90.5q11 42 20.5 82.5t23.5 80.5z" />
    <glyph glyph-name="two" unicode="2" horiz-adv-x="364" 
d="M159 260q6 -2 6 -5t-4 -5.5t-10 -4.5t-11.5 -3.5t-8.5 -1.5q-48 12 -70 26t-22 25q0 12 16 22.5t38 18t46 12t40 4.5q8 0 18.5 -1t20 -5t16 -11.5t6.5 -19.5q0 -11 -5 -23.5t-12 -24t-15 -22.5t-13 -19q-16 -24 -34 -52t-37 -54q11 -2 21 -3.5t18 -3.5q12 -3 43 -9
t63.5 -13t57.5 -14t25 -11t-12 -9.5t-18 -6.5q-8 0 -17.5 3t-17.5 5q-42 11 -88 24t-91 17l-2 -3q-5 -4 -11.5 -7.5t-13.5 -3.5q-5 0 -11.5 3.5t-6.5 10.5q0 8 10.5 13t18.5 7q17 25 33.5 51t32.5 50q13 20 28 42.5t15 48.5q0 6 -5.5 10t-13 6.5t-16 4t-14.5 1.5
q-8 0 -21 -2.5t-25 -6.5t-20.5 -9t-8.5 -10q0 -7 10.5 -13.5t24 -12t27 -9.5t20.5 -6z" />
    <glyph glyph-name="three" unicode="3" horiz-adv-x="309" 
d="M120 313q7 -3 7 -6q0 -5 -10 -9t-18 -4q-23 0 -39 12t-21 26q0 12 13.5 21t32.5 16t40.5 10.5t36.5 3.5q6 0 18.5 -1.5t25 -5t22 -10t9.5 -16.5q0 -14 -18 -34t-37 -38l-3.5 -3.5l-3.5 -3.5h6q15 0 29.5 -5.5t26.5 -17.5t19 -31.5t7 -47.5q0 -19 -1.5 -30.5t-8.5 -26.5
q-8 -17 -23 -31t-34.5 -24.5t-40.5 -16t-41 -5.5q-32 0 -55.5 17t-23.5 58q2 6 11 11.5t17 5.5q7 0 10 -4q0 -34 19 -50.5t51 -16.5q39 0 60 30t21 69q0 18 -3 34.5t-10.5 30t-21 21.5t-33.5 8h-5l-6 -6q-25 -22 -46.5 -37.5t-46.5 -15.5q-3 0 -10.5 1.5t-7.5 5.5
q0 13 13 24t30.5 19.5t35 14.5t25.5 9q8 8 17.5 19t18 22.5t14 22t5.5 17.5t-6.5 10.5t-15.5 5t-18 2t-14 0.5q-4 0 -14 -1t-20 -4t-18 -8t-8 -12q2 -11 16 -15.5t25 -9.5zM83 219q6 0 11.5 5t7.5 9q-4 0 -7 -2.5t-6 -4.5q-4 -4 -6 -7z" />
    <glyph glyph-name="four" unicode="4" horiz-adv-x="311" 
d="M151 423q2 6 12 11.5t18 5.5t8 -7q-9 -64 -27 -132.5t-46 -126.5l-3 -7q21 -2 41 -7t34 -10l6 15q4 21 6.5 38.5t4.5 35t4 35.5t5 40q3 5 12 10t17 5q6 0 9 -3q0 -37 -4 -74t-12 -69q-14 -41 -19 -88.5t-10 -89.5q-3 -5 -12 -10t-17 -5t-9 5q4 34 9 67.5t10 67.5
q-3 -1 -11 -1q-19 0 -38.5 8.5t-37.5 12.5q-10 -12 -22.5 -20.5t-27.5 -8.5t-17.5 4.5t-2.5 6.5q0 15 16.5 23.5t30.5 10.5q29 60 44 126t29 131z" />
    <glyph glyph-name="five" unicode="5" horiz-adv-x="309" 
d="M329 399q4 1 10 1q7 0 7 -3q0 -4 -8.5 -9.5t-15.5 -7.5l-160 -33q-8 -26 -14 -40.5t-16 -39.5q15 5 29.5 8.5t27.5 3.5q22 0 38 -12t26 -29.5t14.5 -38.5t4.5 -39q0 -30 -13 -54.5t-34.5 -41t-48 -25.5t-53.5 -9q-35 0 -61 23.5t-26 59.5q2 6 11 11.5t17 5.5q7 0 10 -4
q0 -39 21 -55.5t52 -16.5q20 0 36 8.5t27.5 23t17.5 33t6 38.5q0 12 -3.5 28.5t-12 32t-22 26t-32.5 10.5q-11 0 -21 -1.5t-19 -6.5q-2 -7 -7 -17t-12.5 -19.5t-16.5 -16t-18 -6.5t-16 8q-2 2 -2 5q0 10 13.5 24.5t29.5 24.5q11 23 17.5 47.5t14.5 50.5q2 6 8.5 9.5
t12.5 5.5l181 37v0z" />
    <glyph glyph-name="six" unicode="6" horiz-adv-x="311" 
d="M223 450q2 2 12 7.5t18 5.5q7 0 7 -7q-21 -38 -49.5 -82.5t-54.5 -91.5t-44 -94.5t-18 -91.5q0 -19 2.5 -30t6.5 -17t9 -7.5t9 -1.5q29 0 53.5 17t42.5 41.5t28 52t10 49.5q0 11 -6 18.5t-21 7.5h-6q-23 -2 -35 -15t-21 -27.5t-19 -26t-28 -11.5q-6 0 -6 5q0 2 1 4
q9 18 20.5 34.5t26.5 29t34.5 20.5t43.5 8q23 0 38 -10.5t15 -35.5q0 -14 -4 -27q-5 -18 -21 -44t-39.5 -51t-52 -42.5t-58.5 -17.5q-26 0 -43 18t-17 50q0 24 9.5 55t24.5 65t33.5 69t37 67t34.5 59.5t27 47.5z" />
    <glyph glyph-name="seven" unicode="7" horiz-adv-x="271" 
d="M41 319q11 0 11 -4t-12 -9.5t-18 -6.5q-18 0 -28.5 8.5t-10.5 20.5q0 19 25.5 35.5t61.5 28.5t74.5 18.5t64.5 6.5q22 0 34.5 -5.5t12.5 -26.5q0 -19 -5 -46.5t-12 -56t-14 -54.5t-11 -41q-18 -69 -36 -137.5t-35 -137.5l-4 -16q-13 -48 -24.5 -95t-16.5 -95
q-3 -5 -12 -10t-17 -5t-9 5q7 53 19.5 104t25.5 102q17 69 35.5 137.5t35.5 137.5q5 20 12 44.5t14 51t11.5 52t4.5 46.5q0 17 -8 22t-29 5q-18 0 -45.5 -5.5t-53 -14t-44 -19.5t-18.5 -21q0 -8 5.5 -13.5t15.5 -5.5z" />
    <glyph glyph-name="eight" unicode="8" horiz-adv-x="309" 
d="M29 77q0 21 7.5 41.5t19 40.5t26 39t28.5 37h-4q-27 14 -38.5 30.5t-11.5 33.5q0 15 9 31t24.5 28.5t36 21t44.5 8.5q19 0 36 -8t17 -28q0 -16 -11 -31.5t-23 -29.5q18 -15 32 -35t24 -42t15.5 -45.5t5.5 -44.5q0 -25 -10 -50.5t-27.5 -45.5t-41 -33t-49.5 -13
q-21 0 -41 7t-35 20t-24 30.5t-9 37.5zM226 114q0 42 -16.5 82t-43.5 68l-7 -9q-16 -19 -32 -39.5t-29 -42.5t-21 -45.5t-8 -48.5q0 -33 24 -55.5t54 -22.5q21 0 36 11.5t24.5 28.5t14 36.5t4.5 36.5zM91 309q0 -17 11 -29t28 -22l5 7q2 3 5.5 6.5l7.5 7.5q-5 3 -8.5 6
t-8.5 5q-4 3 -4 5q0 5 12 9.5t20 4.5h4l5 -3q7 10 11.5 19.5t4.5 17.5q0 14 -13.5 19t-22.5 5q-11 0 -21 -5.5t-18 -14t-13 -18.5t-5 -20z" />
    <glyph glyph-name="nine" unicode="9" horiz-adv-x="311" 
d="M239 297q-3 -5 -13.5 -10t-18.5 -5q-6 0 -6 5q0 2 1 4q4 7 9.5 18t10.5 23t8 23t3 18q0 10 -7 10q-19 -5 -37 -22t-31 -30q-29 -29 -56 -63t-39 -75q-1 -2 -1 -6q0 -7 8 -7q12 0 35 11.5t48 28t48 33.5t35 29q2 2 11 5.5t16 3.5t7 -6l-126 -581q-3 -7 -9.5 -10.5
t-13.5 -3.5q-9 0 -12 7l118 550l-11 -9q-15 -12 -34 -26.5t-39.5 -27t-41.5 -21t-40 -8.5q-11 0 -24.5 4.5t-13.5 18.5q0 13 11 34.5t28.5 46.5t41 51t48 46.5t49 33.5t44.5 13q23 0 23 -26q0 -21 -9.5 -42.5t-19.5 -37.5z" />
    <glyph glyph-name="colon" unicode=":" horiz-adv-x="186" 
d="M95 288q2 9 8.5 14t14.5 5h13q6 0 11.5 -1.5t5.5 -9.5q0 -6 -2 -11.5t-2 -12.5q4 1 9 1q8 0 8 -6q0 -9 -4 -16t-9.5 -12.5t-11.5 -8.5t-9 -3q-14 0 -23.5 14.5t-9.5 34.5q0 8 1 12zM60 40q-1 1 -1 5q0 5 4.5 9t12.5 6l13 3q2 0 6 1t6 1q8 0 13 -5.5t5 -10.5v-36
q0 -6 -5 -10.5t-11 -4.5q-7 0 -17 5t-12 11z" />
    <glyph glyph-name="semicolon" unicode=";" horiz-adv-x="186" 
d="M61 29q2 5 12 10.5t18 5.5t8 -6q-10 -47 -22 -93t-21 -93q-3 -5 -9.5 -10.5t-14.5 -5.5t-9 5q9 48 19 94t19 93zM95 288q2 9 8.5 14t14.5 5h13q6 0 11.5 -1.5t5.5 -9.5q0 -6 -2 -11.5t-2 -12.5q4 1 9 1q8 0 8 -6q0 -9 -4 -16t-9.5 -12.5t-11.5 -8.5t-9 -3
q-14 0 -23.5 14.5t-9.5 34.5q0 8 1 12z" />
    <glyph glyph-name="less" unicode="&#x3c;" horiz-adv-x="439" 
d="M317 359q5 5 13.5 5.5t14.5 -2t7 -7t-9 -9.5q-27 -14 -50.5 -30.5t-46 -34.5l-45 -36t-47.5 -33q32 -14 60.5 -23.5t61.5 -17.5q10 0 9 -4t-7 -9.5t-15 -9.5t-14 -4q-41 11 -79 22.5t-69 31.5q-5 5 -5.5 8t0.5 5.5t3 5.5t2 8q30 10 58 26.5t54.5 35.5t52 38t51.5 34z" />
    <glyph glyph-name="equal" unicode="=" horiz-adv-x="519" 
d="M167 299q-20 0 -15.5 6.5t15.5 6.5q25 5 50 6t50.5 -0.5t50.5 -3.5t50 -2q5 0 3.5 -2t-6.5 -4.5t-11.5 -4.5t-11.5 -2h-175zM153 245q-10 0 -11 2t2.5 4.5t10.5 4.5t12 2h229q10 0 9 -2t-7.5 -4.5t-15.5 -4.5t-14 -2h-215z" />
    <glyph glyph-name="greater" unicode="&#x3e;" horiz-adv-x="487" 
d="M189 377q-3 3 -3 5q0 6 7.5 10t14.5 4q8 0 8 -6q61 -81 161 -120v-14q0 -6 -15.5 -13.5t-37.5 -15t-44.5 -14.5t-36.5 -11q-11 0 -27.5 -8t-26.5 -19h-10t-12 0.5t-10 2t-4 3.5q0 4 9 8q10 10 20 15.5t20.5 9t20.5 7t20 8.5q21 8 42 14t42 10q-45 20 -82.5 49.5
t-55.5 74.5z" />
    <glyph glyph-name="question" unicode="?" horiz-adv-x="205" 
d="M154 577q2 6 11 11.5t17 5.5q7 0 10 -4q0 -7 -7.5 -14.5t-19 -14t-25 -10.5t-26.5 -4q-15 0 -25.5 7.5t-10.5 26.5q0 37 19.5 68t49.5 53t65.5 34t68.5 12q26 0 44.5 -8.5t30.5 -22.5t18 -31.5t6 -36.5q0 -24 -9 -48t-22.5 -46.5t-30 -43.5t-31.5 -40l-18 -22
q-27 -33 -56 -70t-53.5 -76.5t-41.5 -81t-19 -83.5q1 -8 9.5 -13.5t8.5 -7.5q0 -4 -7.5 -5.5t-9.5 -1.5q-12 5 -17 14.5t-5 22.5q0 15 5 34t11.5 36.5t13.5 31.5t10 21q29 57 66.5 102.5t77.5 95.5q35 42 60.5 83.5t25.5 92.5q0 9 -3 27.5t-15 32.5q-19 18 -35 22t-30 4
q-28 0 -55 -10.5t-48 -29t-34 -43.5t-13 -55v-6.5t1 -7.5q3 -11 14 -11q13 0 26 13zM68 40q-1 1 -1 5q0 5 4.5 9t12.5 6l13 3q2 0 6 1t6 1q8 0 13 -5.5t5 -10.5v-36q0 -6 -5 -10.5t-11 -4.5q-7 0 -17 5t-12 11z" />
    <glyph glyph-name="at" unicode="@" horiz-adv-x="645" 
d="M378 161q-3 -5 -13.5 -10t-18.5 -5q-6 0 -6 5q0 3 3 9t6 14.5l6 17t3 16.5t-3.5 13t-11.5 5q-20 0 -42 -17t-40 -41t-30 -49t-12 -41q0 -15 9 -22.5t18 -7.5q16 0 39.5 15t49 33.5t49 33.5t39.5 15q18 0 24.5 -15.5t9 -34t3.5 -34t7 -15.5q25 0 46 17t36 44.5t23 62
t8 70.5q0 37 -8 68t-26 53.5t-45.5 35.5t-66.5 13q-34 0 -68.5 -9t-66.5 -24t-61 -35t-52 -42t-46.5 -52t-42 -64.5t-30.5 -71.5t-12 -73q0 -37 16 -67.5t44.5 -52.5t67.5 -34t85 -12q79 0 149.5 31.5t135.5 76.5q4 2 13 5t15 3t6 -3t-6 -9q-34 -24 -73 -46.5t-81 -40.5
t-86 -29t-88 -11q-41 0 -83 10.5t-75.5 32t-55 55.5t-21.5 82q0 38 12 77.5t31.5 75.5t44 66.5t49.5 51.5q29 24 63 47t71.5 41.5t77 29.5t79.5 11t70.5 -16.5t50.5 -44t30 -63.5t10 -76t-10 -78.5t-30.5 -69t-50.5 -49t-69 -18.5q-14 0 -19.5 15.5t-8 33.5t-5 33.5
t-9.5 15.5q-8 0 -24 -12t-35.5 -27t-40 -29t-38.5 -17q-15 -3 -27 -3q-27 0 -41 12.5t-14 35.5q0 16 12.5 45t35 57.5t54.5 49t70 20.5q20 0 28.5 -10t8.5 -25q0 -22 -16 -49z" />
    <glyph glyph-name="A" unicode="A" horiz-adv-x="527" 
d="M277 588q10 29 23 29q8 0 8 -6q-3 -31 -6 -59.5t-5 -65.5q22 31 45.5 63.5t49.5 62t55 55.5t64 45l10 4t10 2q4 0 7 -1q9 -4 13 -21.5t4 -43.5q0 -32 -4.5 -72t-11.5 -82t-15.5 -81t-15.5 -68q4 -3 13 -8t17 -10t14.5 -9.5t6.5 -6.5q0 -3 -4.5 -6t-10.5 -4.5t-11.5 -2.5
t-7.5 -1q-7 3 -13 6.5t-12 6.5l-9 -30q-9 -33 -22.5 -75t-30.5 -79t-38.5 -62t-48.5 -25q-4 0 -15.5 3t-20.5 17q-23 37 -33 84.5t-15 92.5l-4 52t-3 52l-24 -17q-21 -24 -41 -65t-39 -92.5t-36 -109t-32 -112.5q-5 -7 -13 -9t-16 -3q-6 0 -8 4q10 62 32.5 130t51.5 133.5
t61.5 124.5t62.5 103q5 48 8 84.5t10 72.5zM295 380q20 6 38 8.5t34 2.5q32 0 57.5 -8t51.5 -18l4 15q6 28 13.5 65t14 76t10.5 74.5t4 60.5q0 37 -11 37q-25 -14 -51 -40t-50 -56t-45.5 -60.5t-37.5 -53.5l-31 -45q-1 -14 -1 -29v-29zM426 352q-17 8 -35.5 11.5t-38.5 3.5
q-28 0 -56 -6q1 -41 5.5 -91.5t13 -95t21.5 -74.5t30 -31q3 0 10.5 13.5t17.5 35t20.5 49.5t21 57t19 57t14.5 51zM239 352q5 4 10 6.5t10 5.5v18z" />
    <glyph glyph-name="B" unicode="B" horiz-adv-x="471" 
d="M292 611q2 2 12 7.5t18 5.5q7 0 7 -7l-300 -557q-4 -5 -12.5 -9t-15.5 -4q-8 0 -9 5q23 79 56.5 166.5t69.5 167.5t71.5 144.5t63.5 98.5q46 57 90.5 83.5t80.5 26.5q17 0 28 -6.5t18 -17.5t9.5 -25t2.5 -29q0 -37 -11.5 -74.5t-30 -73t-42.5 -67.5t-49 -59q35 -1 59 -18
t24 -65q0 -30 -10 -66t-24 -69t-29.5 -59.5t-26.5 -36.5q-11 -13 -24 -27t-28.5 -25.5t-32 -19t-34.5 -7.5q-21 0 -32.5 15.5t-11.5 41.5q0 10 1 20t4 18.5t10 14t19 5.5q8 0 8 -9q-1 -3 -3.5 -18t-2.5 -32q0 -5 0.5 -11.5t2.5 -12.5t6.5 -10.5t12.5 -4.5q16 0 34 16
t35.5 40.5t33.5 55.5t28.5 61.5t19.5 56.5t7 42q0 13 -3.5 27.5t-10.5 27t-18.5 20.5t-26.5 8q-3 0 -5.5 -0.5t-4.5 -0.5l-20 -18q-14 -12 -42 -26t-54 -14q-7 0 -15.5 2t-8.5 7q0 13 17.5 25t40 21t43.5 15t28 7q55 57 88.5 128.5t41.5 150.5q-1 31 -12 42.5t-26 11.5
q-11 0 -22 -4t-21 -9.5t-17 -10.5t-10 -7q-25 -22 -46 -48t-39.5 -55t-34 -59t-30.5 -59q-33 -66 -61.5 -133.5t-53.5 -137.5l220 417v0z" />
    <glyph glyph-name="C" unicode="C" horiz-adv-x="394" 
d="M468 539q2 6 11 11.5t17 5.5q3 0 6.5 -1.5t3.5 -4.5l6 -19q8 14 14.5 38.5t6.5 48.5q0 25 -10 44t-35 21q-58 -2 -110 -27.5t-96 -67.5t-79 -95.5t-60 -111.5t-38 -117t-13 -110q0 -65 35.5 -106.5t96.5 -41.5q22 0 49 8t54.5 22.5t55 35t51.5 45.5q3 3 11.5 5.5
t15.5 2.5t7 -3t-6 -9q-26 -29 -58.5 -52t-66.5 -39.5t-67.5 -25.5t-61.5 -9q-33 0 -61 10t-48.5 28.5t-32.5 46.5t-12 64q0 39 8 80.5t21.5 82.5t31 80t37.5 74q24 42 59.5 86.5t79 82t94.5 61.5t107 24q20 0 35 -9.5t24.5 -23.5t14.5 -31.5t5 -32.5q0 -17 -5.5 -36t-15 -35
t-23.5 -26t-31 -10q-12 0 -20 8t-8 28z" />
    <glyph glyph-name="D" unicode="D" horiz-adv-x="582" 
d="M277 606q2 2 12 7.5t18 5.5q7 0 7 -7q-8 -16 -15 -31t-13 -30q35 23 77 43.5t83 20.5q34 0 60.5 -17t44 -45t26.5 -62.5t9 -69.5q0 -9 -0.5 -18t-1.5 -17q-13 -91 -55.5 -166.5t-106 -129.5t-143 -84t-166.5 -30q-54 0 -109.5 13t-109.5 39q-4 3 -4 5q0 5 12 9.5t20 4.5
h4q53 -17 104 -33t108 -16q87 0 164 36.5t135 106.5q21 25 41 58t35.5 70.5t25.5 77.5t10 78q0 21 -6 49.5t-20 54t-36.5 43t-54.5 17.5q-24 0 -47 -7.5t-44 -18.5t-39 -25t-33 -27q-26 -60 -46 -115t-40.5 -110t-43 -114t-52.5 -126q-5 -8 -13 -12t-15 -4q-10 0 -13 9
q3 75 23 145.5t46 139.5q7 18 17 39t22.5 42.5t26 40.5t26.5 32l24 24q21 51 46 104zM92 141q31 76 55 144.5t53 140.5q-40 -63 -67.5 -136.5t-40.5 -148.5z" />
    <glyph glyph-name="E" unicode="E" horiz-adv-x="220" 
d="M428 695q0 -16 -17.5 -34.5t-41.5 -34.5t-48 -27t-37 -11q-6 0 -6 5q0 7 16.5 15.5t36.5 20t36.5 25t16.5 29.5q0 15 -6.5 21t-22.5 6q-33 0 -72.5 -19.5t-73.5 -48.5t-57 -63t-23 -64q0 -25 9.5 -37t23.5 -17t30 -6t30 -4.5t23.5 -12.5t9.5 -29q0 -28 -16.5 -57.5
t-41 -59.5t-53.5 -60t-53.5 -59.5t-41 -58t-16.5 -54.5t17 -37.5t34 -11.5q38 0 84 27.5t90 76.5q3 3 13.5 7.5t17.5 4.5q5 0 5 -3q0 -4 -2 -6q-23 -26 -50.5 -49.5t-57.5 -42t-61 -29.5t-60 -11q-27 0 -47.5 14.5t-20.5 46.5q0 33 16.5 64.5t41.5 61.5t53.5 59t53.5 57.5
t41.5 57t16.5 57.5q0 12 -9 16.5t-23 6t-29.5 3.5t-29.5 9.5t-23 23t-9 45.5q0 46 27 87t69 71.5t92 48.5t96 18q15 0 32 -8.5t17 -29.5z" />
    <glyph glyph-name="F" unicode="F" horiz-adv-x="241" 
d="M-85 228q-5 1 -5 4q0 5 5 11t13 6l176 7q15 38 35.5 89t43.5 101t45 92.5t40 63.5q-31 9 -61.5 23t-58.5 27.5t-53 23.5t-45 10q-26 0 -39.5 -11t-20 -23.5t-8.5 -23.5t-6 -11q-5 0 -9 3.5t-4 11.5t2 20.5t10.5 24.5t24.5 20.5t44 8.5q29 0 54 -8t52.5 -20t60.5 -26.5
t78 -28.5q23 22 49.5 37t49.5 15q11 0 16.5 -4t5.5 -18q0 -26 -19 -41.5t-53 -15.5h-23.5t-18.5 1q-15 -20 -34.5 -57t-40.5 -83.5t-43 -98.5t-41 -102q25 1 49.5 1h49.5h165q5 0 9 -0.5t4 -2.5q0 -4 -6 -6.5t-14.5 -4t-17 -2.5t-12.5 -1q-18 -1 -37.5 -1.5t-36 -1t-29.5 -1
t-17 -0.5q-35 -1 -62.5 -1.5t-53.5 -0.5q-22 -51 -36.5 -96.5t-30.5 -97.5q-11 -35 -21.5 -66t-18.5 -67q-3 -5 -12 -10t-17 -5t-9 5q7 35 18 67t22 66q19 54 33.5 100.5t37.5 99.5l1 3q-18 0 -36 -0.5t-35 -0.5zM369 655q-8 0 -24.5 -12t-29.5 -25q10 -3 22 -3
q18 0 29.5 6.5t11.5 17.5q0 4 -1 8.5t-8 7.5z" />
    <glyph glyph-name="G" unicode="G" horiz-adv-x="344" 
d="M541 681q0 -31 -28 -47.5t-68 -24t-84.5 -8.5t-78.5 -1q-31 -28 -65.5 -65.5t-67.5 -79.5t-63 -86.5t-52.5 -87t-36 -80.5t-13.5 -67q0 -22 13.5 -30t41.5 -8q26 0 60 8.5t67.5 21t62.5 27.5t47 28q2 2 11 5.5t16 3.5t7 -6q-29 -53 -58.5 -110.5t-56 -116.5t-48.5 -119.5
t-36 -120.5q1 -4 8 -4q12 0 27 8t29 18t26 18t19 8q4 0 6 -6q-7 -12 -23 -27t-35.5 -29t-39 -23.5t-33.5 -9.5q-23 0 -23 27q0 38 16 75.5t29 73.5q27 78 56.5 144.5t66.5 139.5q-42 -23 -93 -40t-108 -17q-13 0 -28.5 1.5t-29 8t-23 19.5t-9.5 36q0 33 25 89t66.5 121.5
t95.5 132t112.5 121t116.5 89t108 34.5q9 0 20.5 -1.5t22 -6t18 -13t7.5 -23.5zM418 698q-23 -13 -57 -33.5t-67 -51.5q21 3 56.5 7t69 11t58.5 17.5t25 26.5q0 19 -12 26t-28 7q-13 0 -25.5 -3.5t-19.5 -6.5z" />
    <glyph glyph-name="H" unicode="H" horiz-adv-x="429" 
d="M282 604q2 5 12 10.5t18 5.5t8 -6q-17 -54 -34.5 -102t-35.5 -95t-37 -94.5t-39 -100.5q15 6 33 6q35 0 62 -17.5t39 -43.5l6 -17q0 2 1 3q18 52 36.5 101t38 97t40 96.5t41.5 101.5q2 2 12 7.5t18 5.5q7 0 7 -7q-26 -62 -47.5 -113t-42 -101.5t-40.5 -105.5t-41 -125
q1 -8 1 -15v-14q0 -13 -1.5 -30.5t-7 -33.5t-16 -27.5t-28.5 -11.5q-6 0 -8 5q2 29 7.5 58t14.5 58q3 7 3 20t-5 29t-15.5 29.5t-28 22.5t-42.5 9q-23 0 -45 -7l-34 -86q-8 -19 -18 -43.5t-23.5 -46t-29.5 -36.5t-35 -15q-5 0 -12.5 5.5t-7.5 12.5q0 26 10.5 55t28 56.5
t40.5 52.5t47 43q20 54 39.5 103.5t38.5 98t37 98t35 104.5zM42 9q8 5 19 24.5t22.5 45.5t22.5 54t20 51q-12 -9 -27 -32.5t-28.5 -50.5t-22.5 -51.5t-9 -34.5q0 -6 3 -6z" />
    <glyph glyph-name="I" unicode="I" horiz-adv-x="254" 
d="M318 628q6 -2 6 -4t-4 -5.5t-9 -7.5t-10 -7t-6 -4q-6 -2 -21.5 -9.5t-27.5 -11.5q-6 -32 -22.5 -91t-42 -128.5t-59 -141.5t-73.5 -130.5t-85 -96t-94 -37.5q-47 0 -91 34.5t-84 84.5q0 1 -0.5 1.5t-0.5 1.5q0 7 9.5 11t18.5 4q7 0 10 -3q9 -13 25 -30.5t36 -33.5
t43.5 -27.5t47.5 -11.5q18 0 36.5 8t38.5 27q47 46 86 112t70.5 141t55 152t39.5 145q-23 7 -41 21t-19 45q0 12 5 24.5t14 23t22 17.5t28 7q20 0 27 -18t7 -45q0 -9 -0.5 -21t-2.5 -21q20 7 35.5 15.5t32.5 9.5zM205 680q-8 -2 -13 -12.5t-5 -24.5q0 -13 6 -25t22 -17
q1 6 1.5 12.5t0.5 14.5q0 19 -3 35.5t-9 16.5z" />
    <glyph glyph-name="J" unicode="J" horiz-adv-x="356" 
d="M92 522q-1 -8 -10 -12.5t-18 -4.5q-7 0 -11 6t-6.5 14t-3 15.5t-0.5 11.5q0 27 20.5 52.5t54.5 45t79 31.5t94 12q31 0 56 -7t43 -23t28 -42t10 -64q0 -32 -6 -64t-11 -60q-20 -101 -57.5 -198.5t-100.5 -180.5q-11 -14 -25.5 -32.5t-33 -35.5t-41.5 -28.5t-51 -11.5
q-21 0 -33 12t-17.5 28.5t-6.5 35t-1 31.5q0 20 3.5 39t11.5 34t22.5 25.5t36.5 13.5q9 0 9 -3q0 -4 -8.5 -8.5t-14.5 -8.5q-11 -7 -16.5 -30t-5.5 -51q0 -18 2.5 -35t7 -30.5t11.5 -22t17 -8.5q16 0 32 10t30.5 25.5t28 35t26.5 38.5q29 45 56.5 102t49 118t34.5 123
t13 118q0 29 -3.5 53.5t-15.5 42t-34.5 27.5t-60.5 10q-32 0 -66 -7t-62.5 -20.5t-46.5 -34.5t-18 -49q0 -17 9 -38z" />
    <glyph glyph-name="K" unicode="K" horiz-adv-x="490" 
d="M518 513q2 2 12 5.5t17 3.5q5 0 5 -3q0 -2 -3 -6q-72 -78 -146 -151t-153 -142q-31 -27 -57 -47t-56 -33q27 -29 52 -52.5t51 -40.5t53 -26.5t59 -9.5q30 0 60.5 11.5t59.5 37.5q10 9 20.5 20t21 21t22 17t22.5 7q5 0 5 -3q0 -2 -3 -6q-33 -35 -58.5 -60t-50 -41
t-51.5 -23t-62 -7q-36 0 -68.5 11t-61.5 30t-55 42.5t-50 49.5q-13 -23 -27 -44.5t-28 -42.5q-8 -8 -16 -9.5t-19 -3.5h-5q-9 0 -9 3t7 8t14 7q14 22 27.5 44t26.5 45q-11 3 -17.5 12.5t-6.5 22.5q0 11 6.5 17.5t17.5 6.5q13 0 26 -10q24 46 45.5 92t43.5 94q26 56 52.5 114
t48.5 117q-50 -24 -106.5 -43.5t-115 -35.5t-115 -28.5t-105.5 -22.5h-4q-9 0 -9 4t7 8.5t13 6.5l27 5q40 7 75 14.5t76.5 20t95.5 32.5t132 52q21 12 32.5 23t19 20t13.5 14.5t15 5.5q8 0 8 -7q-23 -76 -56.5 -149t-66.5 -145q-25 -54 -50.5 -108t-51.5 -105
q54 32 106.5 75t102 91t96 97.5t89.5 96.5z" />
    <glyph glyph-name="L" unicode="L" horiz-adv-x="420" 
d="M461 118q2 2 12 5.5t17 3.5q5 0 5 -3q0 -2 -3 -6q-36 -38 -63.5 -64.5t-53.5 -43.5t-53.5 -24.5t-62.5 -7.5q-12 0 -22 1t-20.5 5.5t-22 13t-26.5 23.5l-7 -8q-5 -6 -15.5 -14t-23 -15.5t-26 -12.5t-25.5 -5q-14 0 -27 11.5t-22.5 28t-15.5 36t-6 35.5q0 26 19 36.5
t42 10.5q30 0 55.5 -17t48.5 -36l6 -6q44 64 83 137.5t75.5 151t72 157.5t73.5 158q-67 -30 -129.5 -52.5t-113.5 -40.5q-4 -1 -10 -1q-8 0 -8 4q0 5 13 12q50 20 120.5 45t141.5 60q11 20 21 42t23 40t31 30t44 12q7 0 12 -5.5t5 -14.5q0 -14 -8.5 -26.5t-20.5 -23.5
t-25 -20t-21 -16q-8 -6 -17.5 -14.5t-17.5 -13.5q-36 -81 -73 -168t-76.5 -171t-83 -161t-91.5 -137q18 -17 39.5 -35t48.5 -18q26 0 51.5 12.5t49 31t44 39.5t37.5 39zM76 -3q8 -6 16 -6q7 0 16 5.5t17 13.5t15 16.5t11 13.5q-7 6 -20.5 17t-28 21.5t-28.5 18.5t-23 8
q-10 0 -13 -11q-2 -7 -0.5 -20t6.5 -27t13 -28t19 -22zM582 799q-3 0 -8.5 -7t-12 -18t-13.5 -23.5t-12 -22.5q6 5 15.5 13.5t18 18.5t14.5 19t6 14q0 6 -8 6z" />
    <glyph glyph-name="M" unicode="M" horiz-adv-x="585" 
d="M239 597q6 3 10 3t4 -4q0 -5 -8 -13t-22 -13q-24 -9 -46 -9q-21 0 -35.5 9t-14.5 28q0 28 17.5 59.5t45 57t60.5 42.5t63 17q37 0 52 -16.5t15 -45.5q0 -33 -15 -78t-36 -96t-43 -103.5t-35 -98.5l76 122q10 16 25 39.5t32 44.5t35.5 36t35.5 15q2 0 7.5 -3t7.5 -14
q0 -21 -5.5 -44.5t-13 -46.5t-15.5 -45t-14 -38q-14 -38 -23 -62.5t-17.5 -46t-16.5 -43.5t-20 -53q-12 -33 -24.5 -65t-20.5 -66l27 43q14 22 35.5 59.5t46 72.5t49.5 61t48 26q9 0 14 -6.5t7.5 -16t3 -19.5t0.5 -17q0 -35 -4.5 -71t-4.5 -74q0 -20 4.5 -39.5t21.5 -19.5
q8 0 18.5 3t30.5 21q4 4 10 10.5t13 12.5t13 10t11 4q3 0 10 -0.5t7 -2.5l-3 -3q-2 -2 -6.5 -7t-12.5 -13q-21 -23 -44.5 -42t-56.5 -19q-17 0 -27.5 8t-16.5 21t-8 29.5t-2 33.5q0 11 2 29t4 38.5t4 40t2 34.5q0 26 -8 26q-35 -43 -64 -90t-60 -94q-8 -12 -18.5 -29
t-22.5 -32.5t-25 -26t-28 -10.5q-9 0 -11 3.5t-2 8.5q0 14 7.5 40.5t17 52t17.5 45t8 20.5q26 72 53.5 143.5t50.5 143.5q6 20 12.5 41t8.5 43q-36 -36 -63.5 -82t-52.5 -88q-28 -48 -56.5 -93.5t-53.5 -93.5q-11 -21 -21.5 -52.5t-22 -61t-26 -50t-34.5 -20.5q-8 0 -10 5
q0 14 8 34.5t19 43.5t24 46t24 42q13 40 31 88t38 98.5t39.5 100t35 93t25 79t9.5 56.5q0 29 -9 40.5t-26 11.5q-20 0 -44.5 -14.5t-46 -36.5t-36.5 -48.5t-15 -50.5q0 -13 6.5 -17.5t15.5 -4.5q11 0 24.5 4.5t24.5 9.5z" />
    <glyph glyph-name="N" unicode="N" horiz-adv-x="530" 
d="M130 39q-3 -5 -12 -10t-17 -5t-9 5q20 61 42 122t44 124t44 129t43 137q1 15 2.5 38.5t6 45t13.5 37t26 15.5q7 0 9.5 -6.5t2.5 -17.5q0 -13 -2.5 -29t-6.5 -31.5t-7.5 -27.5t-4.5 -17q-5 -54 -6 -105t-1 -105q0 -10 1.5 -40.5t4.5 -70t8.5 -83t14.5 -80t21 -60t28 -23.5
q10 0 21 19.5t20 44t16 47.5t10 31q32 94 62.5 190t76.5 185q2 2 12 7.5t18 5.5q7 0 7 -7q-45 -86 -75.5 -180t-62.5 -191l-44 -110q-5 -11 -12 -22t-16 -21t-20 -16t-26 -6q-17 0 -31 19.5t-25 46.5t-18.5 56t-10.5 48q-7 35 -10.5 72t-5 73.5t-2 71t-0.5 64.5
q-31 -94 -63.5 -186t-65.5 -184z" />
    <glyph glyph-name="O" unicode="O" horiz-adv-x="343" 
d="M332 619q5 0 7 -2.5t2 -4.5t-5.5 -5t-12.5 -6t-13.5 -5.5t-8.5 -3.5q-60 -22 -113.5 -73.5t-93 -119t-63 -143.5t-23.5 -146q0 -10 2.5 -24.5t9 -27.5t16.5 -22t25 -9t32.5 7.5t35.5 19.5t34 26t27 26q17 20 36.5 47.5t39 58.5t38 64.5t32.5 64.5t22.5 57.5t8.5 45.5
q-11 0 -24.5 3t-25 10t-19 17t-7.5 24q0 16 18.5 22.5t36.5 6.5q19 0 34 -9t23 -32q2 -5 2 -11v-11q43 1 88.5 21t85.5 46q17 11 29 16t19 5q5 0 5 -3q0 -8 -30 -25q-52 -30 -97 -52t-101 -27q-4 -33 -21.5 -79t-44.5 -95t-62 -97t-73.5 -86t-80 -61.5t-81.5 -23.5
q-22 0 -35.5 11t-21 27t-10.5 33.5t-3 31.5q0 60 18.5 127.5t52 132t80 120t101.5 91.5q20 14 50.5 26t58.5 16zM368 470q-2 17 -10.5 27t-23.5 10q-6 0 -6 -5q0 -4 3.5 -9.5t9.5 -10.5t13 -8.5t14 -3.5z" />
    <glyph glyph-name="P" unicode="P" horiz-adv-x="301" 
d="M387 426q-31 -31 -55 -52t-46 -36t-44.5 -26t-50.5 -23q-8 -27 -23.5 -65.5t-32.5 -76t-34 -68.5t-29 -43q-5 -5 -9.5 -6.5t-8.5 -1.5q-9 0 -14.5 10t-9 25t-4.5 32.5t-1 33.5q0 53 8 107.5t22.5 108.5t33.5 105.5t41 98.5q15 33 35.5 67t47.5 61t61.5 44t77.5 17
q21 0 41.5 -7t36 -22t25 -38t9.5 -56q0 -26 -6.5 -53t-17 -52t-24.5 -47t-29 -37zM269 587q6 15 14.5 21t16.5 6t8 -6q-7 -28 -22 -68t-32 -82t-32.5 -81.5t-24.5 -67.5q5 2 8.5 3.5t7.5 3.5q40 20 78 49.5t68 66t48 79t18 90.5q0 10 -3.5 29.5t-13 38.5t-27.5 33.5
t-46 14.5q-23 0 -44 -10.5t-37.5 -25t-28 -28t-15.5 -19.5q-40 -62 -70 -136.5t-49.5 -147.5t-29 -137t-9.5 -104q0 -23 3 -36.5t10 -13.5q27 49 49 103.5t41 111.5l-37 -15q-8 -4 -17 -4t-9 5t21.5 14.5t47.5 19.5q9 29 22.5 68t28.5 79.5t30 79t27 66.5z" />
    <glyph glyph-name="Q" unicode="Q" horiz-adv-x="358" 
d="M359 128q-3 -5 -13.5 -10t-18.5 -5q-6 0 -6 5q0 2 1 4q19 32 39 67t36.5 72.5t27 76t10.5 77.5q0 16 -2.5 35.5t-10.5 36.5t-24.5 28.5t-44.5 11.5q-37 0 -70 -22t-61 -48q-35 -33 -64 -74.5t-50 -88t-32.5 -96t-11.5 -97.5q0 -14 1 -33t7 -34.5t18 -23.5t34 0
q6 30 18.5 60.5t31 55t42.5 39.5t53 15q18 0 25 -10t7 -21q0 -14 -8 -27.5t-18 -23.5q-7 -7 -18.5 -19t-26.5 -25.5t-32 -27t-35 -23.5q-4 -17 -4.5 -24.5t-0.5 -13.5q0 -51 17 -80t39 -44.5t43.5 -20.5t30.5 -7q52 -12 112 -12q42 0 86.5 5t88 13t84.5 18t78 20q3 1 8 1
q7 0 7 -4q0 -3 -4.5 -7.5t-11.5 -6.5q-86 -24 -174.5 -41t-179.5 -17q-44 0 -90.5 5.5t-85 24.5t-63 53.5t-24.5 93.5v13.5t1 13.5q-25 -5 -42.5 2t-29 22t-17 35.5t-5.5 43.5q0 50 12 101t33.5 99t52 91t67.5 77q15 14 37 30.5t47.5 30.5t52 23.5t51.5 9.5q17 0 34 -6.5
t31 -21t22.5 -36.5t8.5 -53q0 -37 -11 -77t-27.5 -80t-37.5 -78t-40 -71zM239 157q-17 -8 -28 -21.5t-18.5 -30.5t-12.5 -35.5t-9 -36.5q30 19 56 46t37 60q3 20 -7 21t-18 -3z" />
    <glyph glyph-name="R" unicode="R" horiz-adv-x="378" 
d="M260 8q-29 35 -56.5 69.5t-59.5 66.5l-4 -9q-8 -17 -17.5 -38.5t-21 -40t-24.5 -32t-27 -14.5q-18 0 -23 19.5t-5 46.5q0 26 2 47.5t5 41.5l-11 4q-22 8 -31 17.5t-9 17.5q0 15 20 26t45 12l4 16q20 90 51.5 180.5t79.5 168.5q15 24 42 51.5t59.5 51t67.5 38.5t65 15
q16 0 32 -6t28.5 -19t20.5 -34t8 -51q0 -27 -7.5 -55.5t-19 -55.5t-25.5 -51.5t-27 -43.5q-17 -25 -30 -44.5t-25.5 -37t-27 -35.5t-35.5 -40q-14 -15 -26 -26.5t-23.5 -20.5t-23.5 -18t-27 -19l-12 -9q-17 -10 -32 -17q8 -7 15 -14l13 -13q20 -22 39 -44.5t38 -45.5l32 -40
q-1 -8 -10 -12.5t-18 -4.5q-7 0 -9 2zM271 593q5 11 14 16t17 5t8 -6q-12 -33 -28.5 -82t-34.5 -101t-35 -101t-29 -81l-15 -39q24 15 55.5 42t64 62.5t64 77.5t56 86t39.5 88t15 84q0 44 -19.5 64.5t-51.5 20.5q-35 0 -67.5 -18t-61 -46t-51.5 -62t-38 -66
q-35 -72 -58 -148t-37 -154q17 -7 29 -14.5t26 -18.5l12 31q12 33 28 81t33.5 99.5t34 99.5t30.5 80zM62 47q17 29 31 59t26 61q-11 -2 -25.5 -4t-27.5 -2q-2 -9 -3.5 -20.5t-3 -24.5t-2.5 -25t-1 -22q0 -22 6 -22zM70 184q9 -3 20 -3q8 0 12 1q-13 11 -29 21zM16 216
q0 -6 7 -12t11 -8l2 23q-8 2 -11 2q-7 0 -9 -5z" />
    <glyph glyph-name="S" unicode="S" horiz-adv-x="400" 
d="M295 600q-1 1 -1 3q0 3 8 5q17 2 31.5 -8.5t19.5 -12.5q7 22 22.5 44.5t36 40.5t45 29.5t49.5 11.5q13 0 29 -4.5t30.5 -14t24 -24.5t9.5 -35q0 -23 -16 -40t-40 -28t-51.5 -16.5t-50.5 -5.5q-32 0 -62 8q-3 -20 -3.5 -38t-0.5 -37q0 -37 2 -73t2 -71q0 -62 -14.5 -122
t-64.5 -120q-15 -18 -40 -36.5t-54 -33.5t-61 -24t-62 -9q-20 0 -40 6t-36 18.5t-25.5 31t-9.5 43.5q0 29 13.5 56.5t33.5 49t43.5 34.5t43.5 13q9 0 9 -4q0 -7 -16 -13q-48 -19 -67 -54t-19 -83q0 -20 7.5 -34t19.5 -22.5t27 -12.5t30 -4q65 0 112 30t77 76t44.5 102
t14.5 109q0 40 -3.5 72t-3.5 74q0 23 1.5 45t6.5 43q-9 5 -26.5 16.5t-24.5 18.5zM483 693q-44 -11 -67 -44t-32 -74q35 -11 75 -11q19 0 36.5 3.5t31 11.5t22 22t9.5 34q0 31 -19 48t-56 10z" />
    <glyph glyph-name="T" unicode="T" horiz-adv-x="481" 
d="M332 432q2 -4 2 -5q0 -3 -4.5 -6t-10.5 -4.5t-11.5 -2.5t-7.5 -1q-25 10 -48 21.5t-46 25.5q-13 7 -29 17.5t-30.5 22.5t-24.5 25t-10 27t9.5 26.5t22.5 22.5t27.5 17t24.5 10q37 9 73.5 13t74.5 4q40 0 79.5 -3t79.5 -6q25 22 59 22q4 0 14 -1t19.5 -4t17 -8t7.5 -12
q0 -5 -4 -10q-9 -9 -26.5 -11.5t-34.5 -2.5q-20 0 -39 3q-14 -21 -25 -48t-20 -54.5t-16.5 -54t-14.5 -45.5q-29 -81 -67.5 -164t-94.5 -150q-17 -20 -42.5 -42t-55.5 -41t-63 -31t-63 -12q-14 0 -25 4t-11 17q0 9 11 30t28 43t39 39t45 17q8 0 8 -5q0 -6 -11 -11
q-26 -16 -50.5 -42.5t-31.5 -57.5q3 -14 18 -14q16 0 41 12t51 29t48.5 35.5t33.5 31.5q28 31 50 67.5t40.5 75.5t34 79.5t29.5 79.5q19 53 35 107t45 103q2 4 4 6q-34 4 -78 8t-87 4q-23 0 -52.5 -3t-56.5 -10t-45.5 -19t-18.5 -30q0 -12 9 -22q32 -41 80 -67t95 -45z
M536 638q-1 -1 -2 -1.5t-2 -2.5l53 -3q-1 5 -8.5 8t-17.5 3q-14 0 -23 -4z" />
    <glyph glyph-name="U" unicode="U" horiz-adv-x="547" 
d="M584 114q2 2 9 7t15 5q3 0 8 -0.5t5 -4.5q-10 -11 -26 -27.5t-26 -27.5q-11 -11 -25 -25.5t-30.5 -27.5t-35.5 -22t-39 -9q-24 0 -37.5 11.5t-20 28.5t-8 35.5t-1.5 33.5q0 36 5 72t13 71q-23 -41 -50 -79.5t-58 -74.5q-29 -35 -63.5 -48.5t-66.5 -13.5q-24 0 -40 8.5
t-25 20t-12.5 24.5t-4.5 22q-3 28 -3 56q0 52 8 104t21 103.5t29 102t33 100.5q-42 -58 -77 -116t-60 -125q-3 -5 -12 -10t-17 -5t-9 5q35 91 86.5 169.5t114.5 153.5q2 2 12 7.5t18 5.5q7 0 7 -7q-21 -55 -42 -114t-38 -119t-27.5 -121t-10.5 -120q0 -14 1.5 -35t7.5 -41
t17.5 -34.5t31.5 -14.5q25 0 58.5 30t67.5 73t64.5 91t48.5 85l77 155q8 19 16 27t15 8q13 0 13 -12q0 -3 -2.5 -11.5t-5.5 -18t-5.5 -18t-3.5 -11.5q-16 -39 -32.5 -85.5t-30 -93.5t-22 -92.5t-8.5 -81.5q0 -9 1 -22t5.5 -26t13 -23t23.5 -11q11 0 27 12.5t34 30.5t36 37.5
t33 32.5z" />
    <glyph glyph-name="V" unicode="V" horiz-adv-x="554" 
d="M687 518q5 1 15 4t21 5t20 2t11 -3t-19.5 -8t-49.5 -18q-48 -20 -89 -61t-75 -93t-60.5 -108.5t-44.5 -106.5q-5 -14 -12.5 -37.5t-18.5 -46.5t-26 -39.5t-35 -16.5q-16 0 -28.5 16t-22 37.5t-15.5 43.5t-8 35q-5 37 -8.5 75t-3.5 64q0 24 2.5 64.5t9 88t19.5 97t34 93.5
l-16 -4h-4q-9 0 -9 4t4.5 7t11 5.5t13 4t10.5 3.5q9 15 22 33.5t29 34t34.5 26.5t36.5 11q2 0 3.5 -0.5t3.5 -0.5l12 -6q0 -21 -9.5 -38t-25 -29.5t-35.5 -22t-40 -16.5q-23 -42 -34.5 -89t-19.5 -96q-7 -41 -11 -83.5t-4 -85.5q0 -30 4 -72t11 -80.5t17.5 -65t23.5 -26.5
q10 9 19.5 29t19.5 45.5t19 52.5t17 49q15 40 43.5 90t66 97t81 84.5t90.5 51.5zM416 707q-35 -29 -58 -66q14 7 32 21t26 36v9z" />
    <glyph glyph-name="W" unicode="W" horiz-adv-x="554" 
d="M287 612q2 2 12 7.5t18 5.5q7 0 7 -7q-19 -42 -31.5 -68t-23.5 -47.5t-21.5 -45t-25.5 -60.5q-13 -33 -26 -69t-23.5 -72.5t-17 -74t-6.5 -73.5q0 -9 1 -21.5t4 -24.5t9 -20t16 -8q8 0 16 5t14.5 12.5t12.5 16t10 15.5q12 20 21.5 45.5t19 48.5t22 38.5t30.5 15.5
q5 0 13.5 -3t10.5 -11q4 -27 14.5 -59t22.5 -59t24 -45t19 -18q8 0 13.5 9.5t8.5 25t4.5 35.5t1.5 43q0 24 -1 42.5t-2.5 35l-3 33t-2.5 36.5q-18 8 -18 19q0 1 2.5 5.5t8 10t13 9.5t16.5 4q14 0 15 -32q60 -27 87.5 -31t27.5 -7q0 -12 -11 -12q-22 -1 -26 -1h-5
q-15 0 -33.5 6t-37.5 14q0 -15 1 -23t2 -14t1.5 -14t0.5 -24q0 -31 -1 -66t-7 -65t-18.5 -49.5t-34.5 -19.5q-4 0 -12 2q-26 11 -42 32.5t-27.5 47.5t-19 54t-16.5 52q-23 -61 -42 -100t-48 -58q-40 -27 -66 -27t-36 24.5t-10 57.5q0 25 3.5 50.5t8.5 45.5q10 47 21 84.5
t22.5 70t24.5 62.5t27.5 61.5t31.5 67t36 79.5z" />
    <glyph glyph-name="X" unicode="X" horiz-adv-x="420" 
d="M424 555q2 2 12 7.5t18 5.5q7 0 7 -7q-73 -111 -144.5 -222.5t-134.5 -229.5q9 -16 20 -34t25.5 -33.5t32.5 -26t39 -10.5q21 3 43 14t43 26.5t39.5 33.5t33.5 36q3 3 14 7.5t18 4.5q5 0 5 -3q0 -2 -3 -6q-23 -25 -48 -49t-51.5 -43t-54 -30.5t-54.5 -11.5q-23 0 -46 9.5
t-45 32.5q-19 20 -32 41q-32 -60 -60 -122t-52 -127q-3 -5 -12 -10t-17 -5t-9 5q28 75 61.5 146.5t71.5 142.5q-32 59 -54.5 131t-38 148.5t-25.5 152t-17 141.5q2 6 11 11.5t17 5.5q7 0 10 -4q7 -62 16 -133t23 -142.5t33.5 -140.5t47.5 -128q60 108 125 210.5t132 205.5z
" />
    <glyph glyph-name="Y" unicode="Y" horiz-adv-x="333" 
d="M294 635q2 2 12 7.5t18 5.5q7 0 7 -7q-20 -33 -37 -74.5t-17 -82.5q0 -30 22 -30q21 3 38.5 13.5t33 26t28 33t23.5 33.5q2 2 12 7.5t18 5.5q7 0 7 -7q-15 -54 -31 -107.5t-34 -106.5q7 2 13.5 3t11.5 1q6 0 6 -1q0 -5 -11 -11.5t-28 -13.5q-21 -57 -46 -111t-54 -105
q-18 -31 -40.5 -65t-50 -63t-61.5 -48t-74 -19q-21 0 -31 18.5t-10 37.5q0 16 3.5 34t8 34.5t9.5 30t8 19.5q26 47 55.5 84t66.5 66.5t82 53t102 43.5q14 39 26 77t23 73l3 9q-9 -8 -23.5 -19.5t-31 -22t-34.5 -18t-34 -7.5q-14 0 -30 9.5t-16 32.5q0 18 5 39t13.5 42.5
t18.5 42t20 37.5zM151 -25q32 29 59.5 68t51.5 83.5t44.5 93t38.5 96.5q-61 -18 -111 -49t-87 -73t-59.5 -93.5t-29.5 -110.5q0 -25 7.5 -34t21.5 -9q9 0 19 3t19 7.5t16 9.5t10 8z" />
    <glyph glyph-name="Z" unicode="Z" horiz-adv-x="550" 
d="M210 296q-5 1 -5 4q0 5 5 11t13 6l172 6q25 36 50.5 72.5t52.5 72.5q23 32 49.5 65.5t58.5 60.5l-15 6q-33 13 -67 18.5t-68 6.5q-63 2 -123 -17t-117 -43q-8 -4 -17 -4t-9 5t15 12q65 27 134 47t140 20q47 0 82 -11t69 -22q8 5 15 9.5t16 9.5l12 6q8 4 15 5t12 1
q12 0 17.5 -6t5.5 -15q0 -14 -14.5 -30t-41.5 -16q-11 0 -20.5 2.5t-19.5 6.5q-58 -55 -103.5 -124.5t-88.5 -136.5q28 1 51 1h45h165q5 0 9 -0.5t4 -2.5q0 -6 -24 -10t-64.5 -6.5t-92.5 -3.5t-109 -2q-26 -38 -54.5 -76t-53.5 -73q-23 -32 -46 -61.5t-54 -60.5
q24 -8 45 -18.5t42 -20t43 -16.5t48 -7q17 0 40.5 13t48 31.5t47.5 40t39 38.5q23 24 32.5 30t17.5 6t8 -7q-2 -4 -10.5 -13t-19.5 -20t-22.5 -22t-18.5 -18q-15 -15 -32 -33t-37.5 -34t-46 -26.5t-56.5 -10.5q-26 0 -49 7t-45.5 16.5t-46 21t-48.5 20.5q-17 -16 -36.5 -29
t-36.5 -13q-9 0 -19.5 6.5t-10.5 18.5q0 13 8 22.5t19.5 15t24 8t20.5 2.5q15 0 30 -3q12 15 25 32t25 33.5t22.5 31t17.5 24.5q26 35 50.5 70.5t49.5 69.5h-169zM135 -11q6 0 14.5 6.5t19.5 17.5q-7 2 -13.5 3t-13.5 1q-11 0 -13.5 -5.5t-2.5 -11.5q1 -11 9 -11zM651 605
q8 -2 15.5 -3.5t15.5 -3.5q5 1 8 5t3 8q0 10 -11 10q-5 0 -11 -3z" />
    <glyph glyph-name="bracketleft" unicode="[" horiz-adv-x="436" 
d="M501 666q5 -5 1.5 -9.5t-11 -7t-16.5 -2t-14 5.5q-27 17 -54.5 6t-54 -38.5t-51.5 -67t-45.5 -79t-37 -75t-26.5 -55.5q-20 -51 -40.5 -103t-40.5 -112q-10 -20 -20 -47.5t-20 -47.5q-5 -15 -11 -29t-4.5 -21.5t13.5 -6t42 16.5q5 5 14 5.5t15 -2t7 -7t-9 -9.5
q-30 -11 -60.5 -17.5t-60.5 3.5q20 66 41 129t45 124.5t52.5 122.5t63.5 121q10 20 25.5 47.5t35.5 55.5t44.5 53.5t52.5 41t59 18.5t65 -14z" />
    <glyph glyph-name="backslash" unicode="\" horiz-adv-x="436" 
d="M-66 705q0 5 4.5 10t11 7.5t13.5 2t12 -5.5q30 -33 65.5 -90t74 -125.5t79 -142.5t81 -141.5t80.5 -122.5t77 -85q5 -5 1.5 -9.5t-11 -7t-16.5 -2t-14 5.5q-37 30 -76 85t-78.5 122t-79.5 141t-78.5 142.5t-75 125t-70.5 90.5z" />
    <glyph glyph-name="bracketright" unicode="]" horiz-adv-x="334" 
d="M211 685q-10 -5 -13 -3.5t-0.5 5.5t10 8t17.5 4h107q10 0 11.5 -1.5t1.5 -12.5q-15 -96 -45 -187.5t-64 -183.5t-66.5 -186.5t-52.5 -194.5q-8 -3 -14 -5q-13 -4 -13 5h-3h-10q-25 1 -46.5 5t-47.5 21q8 3 15 7q6 2 13 4.5t12 2.5q12 -12 27 -17.5t30 -7.5
q16 77 39 149.5t48.5 138.5t50 125.5t43 111t27.5 95t4 77.5q5 20 -1.5 29t-19 11.5t-29 1t-31.5 -1.5z" />
    <glyph glyph-name="asciicircum" unicode="^" horiz-adv-x="490" 
d="M174 349q-12 -3 -21 -5q-8 -2 -14 -1t-6 6q31 60 68 127.5t67 127.5q0 5 6 10t13.5 7.5t14 2t6.5 -5.5q5 -25 11 -56.5t14.5 -63t22 -60.5t33.5 -49q5 -5 1 -9.5t-11.5 -7t-16 -2t-13.5 5.5q-16 15 -27.5 36t-20 44t-14.5 48t-10 48q-26 -51 -53 -100t-50 -103z" />
    <glyph glyph-name="underscore" unicode="_" horiz-adv-x="550" 
d="M10 -101v14q20 10 46.5 13t55.5 3t58 -1.5t55 -1.5q48 0 97.5 3t100.5 3q7 0 23.5 -0.5t33.5 -1.5t30 -2.5t13 -2.5q0 -5 -16.5 -8.5t-43 -6.5t-59 -5t-64 -3.5t-58.5 -2t-42 -0.5h-230z" />
    <glyph glyph-name="a" unicode="a" horiz-adv-x="335" 
d="M375 117q2 2 11.5 5.5t16.5 3.5q4 0 4 -4t-3 -7l-68 -70q-7 -8 -20 -17.5t-28 -18t-31.5 -14.5t-31.5 -6q-27 0 -38 24t-11 70q0 3 0.5 6.5t0.5 7.5q-11 -18 -26 -37.5t-32 -35.5t-35 -26t-34 -10q-21 0 -30.5 14.5t-9.5 29.5q0 19 8.5 38t17.5 36q10 19 28.5 43t41.5 45
t49 35.5t52 14.5q25 0 25 -27q0 -7 -2 -17q-6 -32 -13.5 -60.5t-7.5 -57.5q0 -39 12 -54.5t26 -15.5q13 0 30.5 12.5t35 29.5t34 34.5t28.5 28.5zM59 15q20 0 44.5 24t46.5 56.5t36.5 65.5t14.5 51q0 4 -1.5 8.5t-8.5 4.5q-19 0 -43.5 -21.5t-46.5 -51t-37 -61.5t-15 -53
q0 -14 3.5 -18.5t6.5 -4.5z" />
    <glyph glyph-name="b" unicode="b" horiz-adv-x="320" 
d="M113 222q-14 -37 -26 -70t-15 -60t6.5 -48t39.5 -33q37 -9 67 10t46 50t14.5 67t-28.5 60q-4 1 -7 2t-7 1q-18 -7 -32 -24q-2 -2 -8 -5t-13 -5t-11.5 -1t-1.5 8q11 14 30 27t39.5 18t39 -1t28.5 -30q8 -20 8.5 -41t-5 -41t-16 -38.5t-24.5 -32.5q-14 -15 -32 -26
t-38.5 -17t-41.5 -6.5t-40 5.5q-14 5 -23.5 16.5t-16.5 22.5q-11 17 -10 45.5t10 63t24 73t30.5 75t30 67.5t23.5 52q9 22 23.5 58t31.5 70.5t36 59.5t38 25q2 0 3.5 -0.5t3.5 -0.5l8 -5q2 -2 2 -5q-8 -40 -27.5 -93t-46 -107t-56 -103.5t-56.5 -82.5zM161 345q26 48 48 98
t36 94q-17 -31 -29 -62.5t-26 -62.5z" />
    <glyph glyph-name="c" unicode="c" horiz-adv-x="304" 
d="M256 167q-1 -4 -7 -7t-11 -3q-3 0 -4 1q-3 3 -5 11t-6.5 16t-14 14.5t-27.5 6.5q-26 0 -46 -11t-33.5 -28t-21 -37t-7.5 -38q0 -34 24 -59t77 -25q25 0 49.5 11.5t46.5 28t41 35.5t33 34q7 7 15.5 8t13.5 1q6 0 6 -3q0 -2 -6.5 -9t-10.5 -10q-39 -40 -68 -63t-52 -35
t-43 -15.5t-40 -3.5q-57 -1 -88 26.5t-31 72.5q0 26 11.5 51t31 45t45 32t54.5 12q34 0 54.5 -16.5t20.5 -36.5q0 -2 -0.5 -3t-0.5 -3z" />
    <glyph glyph-name="d" unicode="d" horiz-adv-x="331" 
d="M129 235q6 5 15 12t19.5 13.5t22 11t22.5 4.5q8 0 15.5 -3.5t12.5 -13.5q40 69 70.5 141.5t62.5 130.5l2 4q2 4 10.5 6.5t15.5 2.5q2 0 5.5 -1t3.5 -6q-21 -51 -48 -105.5t-51 -110.5t-40 -113t-16 -112q0 -9 1 -21.5t3.5 -24t6.5 -19.5t9 -8t15 7.5t22.5 20t28 29
t31.5 34.5q11 12 32 12q5 0 5 -3q0 -2 -3 -6q-58 -63 -90 -89.5t-51 -26.5q-12 0 -20 8t-12.5 20t-6.5 26t-2 27q0 29 6.5 62.5t16.5 70.5q-17 -29 -36 -57t-39 -55q-8 -12 -22.5 -31t-31.5 -37t-36.5 -31.5t-37.5 -13.5q-12 0 -24.5 8t-12.5 31t13.5 52t33 57.5t41 54
t38.5 42.5zM176 161q14 21 27 42.5t26 44.5q-8 -6 -20 -6q-2 0 -5.5 7t-13.5 7q-5 0 -13.5 -7t-17.5 -15.5t-16 -16t-9 -9.5q-12 -14 -28.5 -39t-31.5 -51.5t-25.5 -51t-10.5 -38.5q0 -13 12 -13q14 4 30.5 20t33.5 37.5t33 45t29 43.5z" />
    <glyph glyph-name="e" unicode="e" horiz-adv-x="260" 
d="M167 224q-5 -12 -17 -27.5t-26 -30.5t-28.5 -27.5t-23.5 -18.5q0 -12 2 -31t10 -36t23.5 -29.5t43.5 -12.5q18 0 34 7t30 17.5t26 22.5l22 22l36 36q8 8 13.5 9t13.5 1q2 0 5 -0.5t3 -2.5q0 -3 -6 -9l-55 -57q-26 -26 -55.5 -46t-73.5 -20q-57 0 -83 32t-26 83
q0 32 9 62.5t24 54t35 38t43 14.5q27 0 27 -28q0 -10 -6 -23zM86 207q-5 -11 -9 -26t-6 -32q6 6 17 17.5t21.5 25t18 26.5t7.5 21q0 12 -14 12q-9 0 -19.5 -16t-15.5 -28z" />
    <glyph glyph-name="f" unicode="f" horiz-adv-x="299" 
d="M72 75q-20 7 -38.5 20.5t-18.5 34.5q0 16 17 22t30 6q19 0 33.5 -10t23.5 -26q49 103 90.5 184t74 136.5t55 84.5t33.5 29q8 0 10 -5t2 -13q0 -15 -6.5 -37t-15 -44t-17 -41.5t-13.5 -29.5q0 -1 -0.5 -1.5t-0.5 -1.5q-34 -75 -77.5 -141t-101.5 -121l-12 -26l3 -13
q33 -10 60.5 -10.5t50.5 5t42.5 15t37.5 20.5q6 6 12.5 10t20.5 4q5 0 5 -3q0 -4 -7.5 -11.5l-10.5 -10.5q-12 -13 -33 -24t-47.5 -18t-58.5 -8.5t-67 4.5q3 -30 3 -62q0 -73 -12.5 -151.5t-29.5 -143.5q-4 -15 -9 -32t-13 -31.5t-21 -24.5t-32 -10q-12 0 -20.5 13.5
t-14 31.5t-7.5 36.5t-2 29.5q0 37 8 74t17 68q8 27 18 56.5t21 58t21.5 54.5t19.5 46q-1 0 -8 2.5t-15 4.5zM93 -200q8 46 14 91.5t6 91.5q0 11 -0.5 22.5t-1.5 22.5q-13 -32 -27.5 -68.5t-26.5 -74.5t-19.5 -76.5t-7.5 -74.5q0 -26 4.5 -51.5t15.5 -51.5q16 32 24 69t14 72
zM277 366q-23 -42 -45 -84t-43 -84q48 62 87 135.5t59 145.5q-16 -29 -30 -58t-28 -55zM60 121q9 -10 21.5 -17.5t20.5 -7.5q0 9 -5 17.5t-12.5 15t-15.5 10t-13 3.5t-5 -5q0 -6 9 -16z" />
    <glyph glyph-name="g" unicode="g" horiz-adv-x="329" 
d="M269 218q0 -5 -0.5 -8.5t-1.5 -8.5q5 0 8 -3q0 -6 -4.5 -19.5l-9.5 -28.5t-10.5 -28.5t-6.5 -19.5q-6 -23 -11 -51t-8 -52q21 11 40.5 25.5t37.5 30t33.5 30t26.5 26.5q11 11 18.5 13t15.5 2q6 0 6 -4q0 -2 -1 -3l-15 -15q-6 -7 -13.5 -14t-13.5 -14q-17 -18 -32 -31.5
t-30.5 -25t-33.5 -22.5t-42 -26l-10 -46q-5 -38 -10.5 -83t-13.5 -90t-19 -87t-26.5 -74.5t-36 -52t-46.5 -19.5q-29 0 -47.5 14t-30 36.5t-16 49t-4.5 52.5q0 53 19 96.5t50 81.5t71.5 72t84.5 68q5 32 11 65t17 68q-15 -18 -31 -35t-33.5 -30.5t-36.5 -21.5t-39 -8
q-17 0 -29.5 9.5t-12.5 31.5q0 27 16.5 60t42.5 62t59.5 49t67.5 20q25 0 37.5 -11t12.5 -30zM151 -251q10 54 16.5 107.5t13.5 107.5q-35 -30 -68 -64t-59 -72t-42 -80.5t-16 -89.5q0 -57 20.5 -85t46.5 -28q20 0 35 25.5t26 60t17.5 68t9.5 50.5zM97 48q14 0 36.5 18.5
t43.5 44t36.5 52t15.5 42.5q0 3 0.5 8.5t-1 11.5t-6 10.5t-14.5 4.5q-17 -1 -38 -14.5t-41 -34t-36.5 -44t-23 -44.5t-1 -36.5t28.5 -18.5z" />
    <glyph glyph-name="h" unicode="h" horiz-adv-x="390" 
d="M247 592q2 2 12 7.5t18 5.5q7 0 7 -7l-218 -503q17 22 36 43.5t38.5 40t39.5 32t40 18.5q4 1 9 2t10 1q12 0 19 -7q7 -13 15 -39.5t19 -53.5t25.5 -47.5t34.5 -20.5q14 0 27 8t24 18t19.5 19.5t13.5 12.5q3 2 10 3t12 1q7 0 7 -3q0 -2 -6 -8q-9 -11 -21.5 -23t-20.5 -18
q-14 -11 -25 -18t-20.5 -11t-17.5 -5.5t-17 -1.5q-18 0 -32.5 12.5t-26.5 31.5t-21 41t-16 41t-12 32t-9 13q-2 0 -5.5 -1.5t-6.5 -3.5q-24 -14 -45.5 -34t-41 -43t-37.5 -48t-35 -48l-13 -17q-2 -2 -12 -6.5t-17 -4.5q-6 0 -6 4q0 2 1 4l245 581v0z" />
    <glyph glyph-name="i" unicode="i" horiz-adv-x="197" 
d="M114 237q0 12 -18 17t-39 6.5t-39 2.5t-18 6t9 7t23 2q114 0 114 -35q0 -12 -7 -28q-10 -21 -23.5 -43.5t-25.5 -46t-21 -47.5t-11 -47q0 -4 1.5 -10.5t9.5 -6.5q33 0 60 14t48.5 32.5t37 36t24.5 24.5q5 4 12 4.5t15 0.5q3 0 3 -3q0 -2 -1 -3q-38 -43 -65 -68
t-50.5 -37.5t-45.5 -16t-49 -3.5q-21 0 -29 9t-8 23q0 15 7 34.5t17 39t19.5 36t14.5 26.5q1 3 6.5 13t11.5 22t11 23t6 16zM137 461q-1 2 -1 7q0 16 16 22l16 6q2 0 3.5 0.5t3.5 0.5q16 0 16 -15v-58q0 -8 -4.5 -14.5t-10.5 -6.5t-13.5 5.5t-9.5 13.5z" />
    <glyph glyph-name="j" unicode="j" horiz-adv-x="229" 
d="M68 115q-7 -5 -15.5 -8.5t-13.5 -3.5q-6 0 -6 3q0 4 4 8q25 27 52.5 53t53 47t46.5 33.5t34 12.5q7 0 7 -6l-12 -30q-45 -115 -88 -231t-74 -236q-8 -27 -15.5 -61t-7.5 -68q0 -18 3 -35t11 -32q5 3 12 5.5t12 2.5t5 -4q0 -5 -5 -10t-11.5 -9.5t-14 -7t-13.5 -2.5
q-11 0 -18 7t-11.5 18.5t-6 24.5t-1.5 25q0 19 2.5 37.5t5.5 32.5q12 66 32 133.5t44 135.5t50 134t50 129l-71 -59zM212 461q-1 2 -1 7q0 16 16 22l16 6q2 0 3.5 0.5t3.5 0.5q16 0 16 -15v-58q0 -8 -4.5 -14.5t-10.5 -6.5t-13.5 5.5t-9.5 13.5z" />
    <glyph glyph-name="k" unicode="k" horiz-adv-x="337" 
d="M76 122q-10 -10 -29 -10q-2 0 -4 1t-2 3t1 3q20 20 35.5 38t27.5 36t21.5 38t17.5 44q0 2 5.5 23.5t15 53.5t23 71t29.5 76.5t35.5 70t40.5 51.5q5 6 14 10t16 4q10 0 11.5 -11t1.5 -19q0 -17 -4.5 -34.5t-12 -35.5t-16 -34.5t-15.5 -29.5l-6 -11q-47 -89 -99 -174
q-5 -11 -7 -26.5t-2 -29.5q0 -10 1.5 -20t5.5 -18q9 13 26.5 26t35.5 13q11 0 19 -6.5t8 -14.5q0 -13 -8.5 -24t-20.5 -18.5t-24 -11.5t-19 -4h-4q-5 -17 -7.5 -35t-2.5 -34q0 -37 11 -54t31 -17q19 0 40 12t41.5 28.5t38 34t29.5 28.5q7 6 14 8.5t13 2.5q2 0 5 -1t3 -3
q0 -3 -6 -9.5t-14.5 -15l-18 -18l-17.5 -17.5q-15 -15 -33.5 -29.5t-37 -25.5t-36.5 -17.5t-33 -6.5q-18 0 -31 8.5t-22 22t-13 30t-4 31.5q0 22 5.5 45t15.5 43q-11 5 -18.5 17t-10.5 20q-9 -21 -24 -39.5t-36 -38.5zM295 582q-26 -45 -47 -93t-37 -99q26 47 49 93.5
t35 98.5zM227 208q-16 -12 -25 -36q1 -1 5 -1q11 0 21 10t10 21q0 7 -6 7q-2 0 -2.5 -0.5t-2.5 -0.5z" />
    <glyph glyph-name="l" unicode="l" horiz-adv-x="243" 
d="M273 486q-34 -88 -82 -171t-93 -166q-5 -5 -7 -16t-2 -23q0 -8 0.5 -25t5 -34.5t13.5 -31t26 -13.5q19 0 39.5 12t39 28.5t34 33t24.5 25.5q11 11 18 16t21 5q7 0 7 -3q0 -2 -4.5 -7t-11 -12t-13.5 -14l-12 -12q-13 -14 -30.5 -30.5t-36.5 -30t-38.5 -22.5t-37.5 -9
q-27 0 -43 11t-25 27.5t-11.5 36.5t-2.5 37q0 44 11.5 91t23.5 88q13 43 30 91.5t38 95t47 89t58 74.5q9 9 25 9q6 0 9.5 -4.5t5.5 -11.5t3 -14t1 -13q0 -27 -11 -55.5t-19 -51.5zM158 384q-8 -20 -16 -43t-16 -47.5t-15.5 -48.5t-12.5 -45q23 37 50 85t51 100.5t42 107
t23 104.5q-36 -48 -60.5 -103t-45.5 -110z" />
    <glyph glyph-name="m" unicode="m" horiz-adv-x="674" 
d="M75 121q-2 -2 -9 -4.5t-14 -2.5q-8 0 -8 4q0 2 1 3q17 17 35.5 36t38.5 37t42.5 33.5t46.5 24.5q6 2 16 2q11 0 16 -4.5t5 -17.5q0 -11 -3.5 -25.5t-8 -30.5t-10.5 -32.5t-10 -29.5l-17 -51q14 18 32 39t37.5 39t40 30t38.5 12q13 0 21 -11t12 -28t5.5 -36t3.5 -36t5 -28
t10 -11q9 0 25 16l35 35t39 35t37 16q15 0 22 -13t11.5 -28.5t10 -28.5t17.5 -13q35 0 61 16.5t52 45.5q8 8 14 10t16 2q7 0 7 -3t-6 -9q-42 -45 -82 -65t-84 -20q-14 0 -21.5 11.5t-13 25t-9.5 25t-10 11.5q-10 0 -25.5 -14.5t-33.5 -32t-38 -32t-39 -14.5q-14 0 -21.5 11
t-11.5 28t-6 36t-4 36t-5.5 28t-10.5 11q-9 0 -31.5 -22.5t-49 -53.5t-50.5 -63.5t-36 -51.5q-2 -2 -12 -6.5t-17 -4.5q-3 0 -3 5q0 4 3 16q2 6 7 20t11.5 32t13 37.5t12.5 36.5q4 12 10 28t11 32.5t9 31.5t4 25q0 12 -7 12q-14 -6 -32 -20t-35.5 -31.5t-33.5 -34t-26 -26.5
z" />
    <glyph glyph-name="n" unicode="n" horiz-adv-x="331" 
d="M37 185q10 5 21 5q9 0 9 -4q0 -2 -6.5 -7t-16.5 -9.5t-22 -8t-22 -3.5q-9 0 -15.5 3t-6.5 13q0 16 20 45.5t48.5 57.5t60 49t55.5 21q27 0 27 -34q0 -9 -2.5 -22t-6.5 -27t-9 -28t-9 -26q-12 -35 -24 -66.5t-26 -62.5q33 39 67 68t64 32q8 0 10 -4t2 -9q0 -12 -3.5 -37.5
t-3.5 -49.5q0 -22 4 -37.5t22 -15.5q8 0 18.5 8.5t22 20.5t23.5 25.5t23 24.5q6 6 15 12.5t20 6.5q3 0 6.5 -1t3.5 -4q-11 -9 -27.5 -27.5t-35 -37t-36.5 -32.5t-32 -14q-38 0 -49.5 18.5t-11.5 47.5q0 17 2 34.5t2 33.5v9q-45 -38 -82.5 -84t-72.5 -91q-2 -2 -12 -7t-17 -5
q-6 0 -6 7q14 30 35 74t41 91.5t34.5 93.5t14.5 80q0 4 -2 8.5t-6 4.5q-14 0 -34.5 -16.5t-40 -39t-35.5 -46t-20 -38.5q1 -2 1 -4t3 -2q5 0 9.5 2t8.5 4z" />
    <glyph glyph-name="o" unicode="o" horiz-adv-x="276" 
d="M205 207q-3 2 -8 2q-8 0 -15 -4.5t-15 -4.5q-5 0 -10 4q0 7 6.5 12t15.5 9t18 6t13 2q19 0 33 -12.5t14 -37.5q0 -34 -16 -67.5t-41.5 -60.5t-56 -44t-60.5 -17q-24 0 -41 12.5t-17 41.5t11.5 56t30 51.5t40.5 45.5t43 38q3 2 11 4t14 2q7 0 7 -3t-4 -7
q-16 -12 -36.5 -30.5t-38.5 -41t-30.5 -47t-12.5 -48.5q0 -8 2 -17.5t6.5 -18t12 -14.5t17.5 -6q21 0 43 16.5t40 40.5t30 51.5t12 48.5q0 27 -18 38z" />
    <glyph glyph-name="p" unicode="p" horiz-adv-x="279" 
d="M53 99q-2 -2 -12 -7t-17 -5q-6 0 -6 6q0 2 1 3q20 21 44.5 44.5t44.5 49.5q1 2 2 4.5t2 5.5q5 13 13 32.5t19 36.5t25.5 29.5t32.5 12.5q3 0 8 -3q0 -17 -11.5 -33t-20.5 -28q-9 -11 -17 -23t-17 -23q-6 -15 -11.5 -30.5t-10.5 -29.5q17 14 36.5 23t39.5 9
q31 0 42.5 -14.5t11.5 -33.5q0 -29 -11 -54t-30.5 -43.5t-45 -29.5t-54.5 -11q-22 0 -35 12q-20 -62 -38 -123.5t-40 -123.5q-8 -22 -18 -52t-24 -57t-32 -46t-42 -19q-5 0 -7.5 4.5t-3.5 11.5t-1.5 13.5t-0.5 11.5q0 19 4.5 37.5t9.5 37.5q28 103 75 206.5t111 184.5l15 45
zM173 150q-20 -11 -36 -23t-30 -33l-12 -35q-5 -26 7.5 -38t33.5 -12q17 0 31.5 9t24.5 24t15.5 33t5.5 36q0 3 -0.5 10t-3 14.5t-7 13t-13.5 5.5q-8 0 -16 -4zM-40 -258q21 60 40.5 123t36.5 119q-20 -36 -44 -85.5t-44 -99t-33.5 -93t-13.5 -68.5q0 -5 1 -12t5 -8t10.5 13
t14 33.5t15 41t12.5 36.5z" />
    <glyph glyph-name="q" unicode="q" horiz-adv-x="341" 
d="M271 194q-3 -5 -12 -10t-17 -5t-9 5q2 10 2 15q0 11 -3 22.5t-20 11.5t-35.5 -13.5t-35 -33t-29 -40t-17.5 -35.5q-4 -12 -6 -20.5t-2 -15.5q0 -21 17 -21q13 0 34 13t41 30t34.5 34t15.5 25q4 4 11.5 8.5t15.5 4.5q5 0 8 -2.5t3 -10.5q0 -12 -3.5 -27.5t-4.5 -19.5
l-20 -100q-14 -66 -27.5 -131t-24.5 -131l-3 -14q-2 -10 -4 -19.5t-4 -19.5q17 54 36 112t43 113.5t55 106.5t72 92q5 5 11 6.5t14 1.5q7 0 7 -4q0 -2 -3 -6q-35 -32 -62 -74.5t-48.5 -90t-38 -97t-30.5 -96.5q-2 -6 -9 -30.5t-16 -53.5t-18.5 -54.5t-17.5 -32.5
q-5 -4 -11.5 -7.5t-13.5 -3.5q-11 0 -12.5 8.5t-1.5 22.5q0 16 2 35.5t5 38t6 34t4 22.5q10 56 21 110.5t22 109.5q5 24 11.5 49t12 48t10 43.5t4.5 34.5q-14 -21 -30.5 -39.5t-35 -32t-37.5 -21.5t-37 -8t-25.5 12t-7.5 29q0 26 14.5 57.5t38.5 59t55 46t65 18.5
q19 0 30.5 -10t11.5 -33v-7.5t-1 -8.5z" />
    <glyph glyph-name="r" unicode="r" horiz-adv-x="293" 
d="M73 119q-8 -9 -15.5 -11t-13.5 -2t-6 4t5 10q14 20 22 38t9 47l-13 9q-13 8 -23.5 26t-10.5 36q0 17 12.5 26.5t26.5 9.5q12 0 20 -7t13.5 -17.5t8 -23.5t3.5 -25v-9t-1 -9q10 -6 26 -13t30.5 -15t25 -18t10.5 -22q0 -8 -6.5 -24.5t-14 -36t-14 -39t-6.5 -32.5
q0 -19 17 -19q14 0 35.5 13t44.5 31.5t43.5 38t31.5 32.5q6 7 14 8t15 1q5 0 5 -3q0 -2 -3 -6l-49 -49q-47 -47 -86 -67.5t-72 -20.5q-14 0 -23 8.5t-9 29.5q0 17 4.5 32.5t11 30l13 29t10.5 29.5q0 9 -6 16t-15 13t-19.5 11.5t-20.5 10.5q-2 -22 -10 -39t-20 -32zM54 279
q0 -11 8 -21t18 -13q1 1 1 4.5v7.5q0 3 -1 8t-3 10.5t-5 9.5t-8 4q-10 0 -10 -10z" />
    <glyph glyph-name="s" unicode="s" horiz-adv-x="199" 
d="M212 205q-3 -5 -13.5 -10t-18.5 -5q-6 0 -6 5q0 3 3.5 9.5t3.5 15.5q0 8 -5 14t-19 6q-20 0 -34 -12t-14 -32q0 -15 6.5 -29.5t14.5 -30t14.5 -31t6.5 -31.5q0 -15 -9.5 -30.5t-24 -28t-33 -20.5t-36.5 -8q-51 0 -51 49q0 16 5.5 28t13 20.5t15.5 13t12 4.5t5 -2
q-2 -2 -5 -8t-6 -14.5t-5.5 -17.5t-2.5 -15q0 -18 10 -27t27 -9q20 0 33 16.5t13 41.5q0 15 -6.5 30t-14 29.5t-14 28.5t-6.5 29q0 19 10.5 33.5t26 24t34 14.5t34.5 5q18 0 30.5 -10t12.5 -24q0 -12 -7 -22z" />
    <glyph glyph-name="t" unicode="t" horiz-adv-x="212" 
d="M119 301l-74 -3q-5 1 -5 4q0 5 5 11t13 6l73 3q35 65 69.5 129.5t74.5 128.5q2 2 12 7.5t18 5.5q7 0 7 -7q-40 -61 -76 -126.5t-71 -135.5q54 2 102.5 2.5t98.5 0.5h165q5 0 9 -0.5t4 -2.5q0 -4 -6 -6.5t-14.5 -4t-17 -2.5t-12.5 -1q-18 -1 -37.5 -1.5t-36 -1t-29.5 -1
t-17 -0.5q-60 -2 -113.5 -2t-106.5 -2l-6 -12q-14 -28 -26 -49.5t-20.5 -42t-13.5 -41.5t-5 -48t17.5 -47.5t43.5 -20.5q15 0 32 10t32 23.5t27.5 26.5t19.5 19t24 6q2 0 4.5 -1t2.5 -3q0 -1 -1 -2l-23 -23q-13 -15 -26 -28t-29 -23.5t-36 -16.5t-47 -6q-38 0 -58.5 21
t-20.5 62q0 24 6.5 47.5t16.5 46t22 45t23 45.5z" />
    <glyph glyph-name="u" unicode="u" horiz-adv-x="292" 
d="M86 209q2 2 12 7.5t18 5.5q7 0 7 -7q-11 -22 -23 -45t-22.5 -47.5t-17 -50t-6.5 -51.5q0 -6 1 -11t7 -5q10 0 24.5 18t31.5 39t35 39t36 18q4 0 7 -1q3 -2 3.5 -10t0.5 -17v-23q0 -5 0.5 -11.5t2.5 -12.5t6 -10.5t12 -4.5q14 1 28.5 10.5t28.5 23t27.5 28t26.5 26.5
q7 6 11.5 7.5t17.5 1.5q5 0 5 -3t-8.5 -12t-20 -20t-23 -21.5t-17.5 -15.5t-16.5 -13t-24 -15.5t-29 -13t-29.5 -5.5q-21 0 -28.5 16.5t-7.5 36.5v9.5t1 9.5q-13 -15 -28.5 -32.5t-31.5 -32.5t-32 -25t-29 -10q-9 0 -18 7t-9 25t7.5 44t18.5 53.5t23 54t22 46.5z" />
    <glyph glyph-name="v" unicode="v" horiz-adv-x="370" 
d="M62 108q-4 -4 -11 -7.5t-15 -3.5q-6 0 -6 5q0 3 1 4q18 16 33 33t27.5 30.5t22.5 22t18 8.5q6 0 9 -5t4.5 -12.5t1.5 -15v-12.5q1 -9 3.5 -32t7 -47t11 -43t15.5 -19q10 0 21 12t22 31.5t21 43.5t18.5 48.5t14.5 46.5t9 37q4 10 13.5 14.5t17.5 4.5t8 -6
q-9 -63 -32 -121.5t-70 -103.5q-11 -10 -26.5 -19t-31.5 -9q-22 0 -33.5 18t-16.5 43.5t-6.5 54t-4.5 48.5q-11 -12 -20 -23t-26 -26z" />
    <glyph glyph-name="w" unicode="w" horiz-adv-x="417" 
d="M74 178q2 2 12 7.5t18 5.5q7 0 7 -7q-6 -9 -14 -24.5t-15 -34t-12 -38t-5 -36.5q4 -29 15 -36.5t20 -9.5q49 0 75 32t37 77q3 5 11.5 10t16.5 5q7 0 10 -3q0 -9 2.5 -29.5t8.5 -41.5t16 -37t26 -16q11 0 20.5 10.5t12.5 20.5q18 55 18 113q0 26 -4 50.5t-12 47.5
q-1 1 -1 3q0 4 12 4q9 0 20 -3t13 -8q10 -29 10 -68q0 -41 -8 -84q-4 -21 -11 -40.5t-18.5 -34.5t-27 -24t-36.5 -9q-29 0 -46 21t-26 54q-20 -28 -54.5 -50t-73.5 -22q-29 0 -46.5 13.5t-17.5 46.5q0 21 5.5 42.5t13.5 40t15.5 32.5t12.5 20z" />
    <glyph glyph-name="x" unicode="x" horiz-adv-x="387" 
d="M314 216q2 2 12 5.5t17 3.5q5 0 5 -3q0 -2 -3 -6q-32 -29 -55.5 -50.5t-45.5 -42.5q0 -14 2 -34.5t6.5 -39.5t14 -32t24.5 -13q12 0 31 14t39.5 33t38.5 38t28 29q5 5 13 6.5t15 1.5q5 0 5 -5q0 -1 -8.5 -10t-19.5 -20.5t-22 -22t-16 -15.5q-20 -20 -35 -32.5t-28 -20.5
t-24 -11.5t-23 -4.5q-22 0 -36.5 9t-23.5 23.5t-13.5 33t-5.5 37.5q-45 -42 -80 -81t-58 -70q-2 -2 -12 -7t-17 -5q-6 0 -6 5q0 2 1 4q19 25 42 51.5t46 50.5t44.5 45.5t38.5 36.5q0 28 1.5 50.5t1.5 39.5q0 34 -11 34q-6 0 -15 -7.5t-24 -24t-38 -41.5t-57 -59
q-2 -2 -7 -5.5t-14 -4.5h-5q-2 0 -4.5 0.5t-2.5 3.5q0 2 1.5 4.5t3.5 4.5q30 29 55 57.5t47 51.5t41 37t36 14q20 -1 25 -20.5t5 -45.5v-53q15 14 32 28.5t38 34.5z" />
    <glyph glyph-name="y" unicode="y" horiz-adv-x="303" 
d="M95 201q3 3 13.5 7.5t17.5 4.5q5 0 5 -3q0 -4 -2 -6q-9 -12 -21 -31t-23 -39.5t-18.5 -40.5t-7.5 -34q0 -20 23 -20q20 0 41 9t41 25q10 17 23.5 41.5t29 47.5t32.5 39.5t36 16.5q7 0 7 -6q-8 -42 -34 -76t-61 -60q-28 -61 -49 -107.5t-36 -83.5t-25 -67t-16.5 -59
t-9 -58.5t-2.5 -64.5q0 -10 2 -26t13 -37q-1 -8 -10 -12.5t-18 -4.5q-8 0 -13 9t-8 21t-4 24.5t-1 19.5q0 55 10 102t27 94.5t40 99.5t49 118q-16 -9 -37 -17.5t-44 -8.5q-14 0 -29.5 6t-15.5 23q0 8 3 19t7.5 21.5t8.5 20t7 14.5q11 20 23 40t26 39z" />
    <glyph glyph-name="z" unicode="z" horiz-adv-x="362" 
d="M66 112q-17 -14 -29 -14q-6 0 -6 5q0 2 1 4q13 16 27 31t25 30t18 30.5t7 33.5q-5 9 -8 17q4 9 14 12.5t18 3.5q10 -3 12.5 -8.5t2.5 -13.5q9 -14 22.5 -23t29 -14t31.5 -7t30 -2q7 0 13.5 4.5t14 9.5t16.5 9.5t20 4.5q2 0 3.5 -1t3.5 -2l3 -3q0 -3 -3 -6
q-17 -18 -35.5 -38t-37 -40.5t-35.5 -38.5t-31 -31q9 -5 17 -12t17 -13t20 -10.5t27 -4.5q11 0 27.5 9t34.5 22.5t36 30t32 32.5q4 5 11.5 6t14.5 1q5 0 5 -3q0 -4 -2 -6q-16 -16 -35.5 -36t-40 -37t-40.5 -29t-37 -12q-20 0 -35.5 5.5t-29 12t-26 13.5t-26.5 10
q-10 -7 -22.5 -15t-26 -14.5t-27 -11t-25.5 -4.5q-5 0 -9 1.5t-5 6.5q3 12 14.5 25t26.5 23.5t32.5 17t33.5 6.5q10 0 19 -3q10 10 21 23.5t22.5 28t24 28.5t25.5 25q-18 -5 -32 -5q-20 0 -36.5 5t-34.5 13l-28 13q-11 -22 -27.5 -47t-42.5 -48zM85 23q3 0 12 3t19.5 7.5
t19 10t10.5 10.5q-3 1 -10 1q-4 0 -12.5 -3t-17 -7.5t-15 -10t-6.5 -11.5z" />
    <glyph glyph-name="braceleft" unicode="{" horiz-adv-x="444" 
d="M471 684q10 0 15 -8t-15 -19q-31 -8 -52.5 -32.5t-38 -58.5t-32.5 -73t-35.5 -76t-47 -67.5t-67.5 -47.5q23 -11 25 -38t-8.5 -64t-28.5 -80t-35.5 -86t-29.5 -81.5t-10 -66.5t22.5 -42t68.5 -7q20 0 13.5 -6.5t-26.5 -6.5q-61 -10 -88.5 4t-33 44.5t6 73t29.5 88.5
t38 91.5t30.5 82t7.5 60.5t-31 26q-9 0 -5 7q2 3 5 7q51 15 82.5 47.5t52.5 72.5t36 83.5t34 80.5t46 62.5t72 29.5z" />
    <glyph glyph-name="bar" unicode="|" horiz-adv-x="212" 
d="M114 707q0 7 11.5 12.5t20.5 5.5q5 0 7 -8t2.5 -18.5t0 -22t-0.5 -18.5q0 -60 -5.5 -130t-12 -141.5t-12 -140.5t-5.5 -129q0 -58 6 -116t21 -118q-6 -2 -11 -3q-9 -3 -19 -3q-7 0 -12.5 14.5t-9.5 36.5t-7 49.5t-4.5 53.5t-2 47.5t-0.5 32.5q0 59 5.5 128t11.5 140.5
t11.5 140.5t5.5 127v30t-1 30z" />
    <glyph glyph-name="braceright" unicode="}" horiz-adv-x="294" 
d="M231 717q-10 0 -9 2t7 4.5t14.5 4.5t13.5 2q20 -2 23 -20t-5 -45.5t-23 -62t-31.5 -72t-30.5 -74t-19.5 -68t1.5 -55t32 -33.5q0 -4 -2 -7q-4 -6 -12 -6q-35 -15 -48.5 -50t-17 -78t-4.5 -88t-11 -80q-5 -45 -24 -78.5t-49.5 -57.5t-70 -40t-84.5 -26q-10 0 -13.5 2t-2 5
t6 5t9.5 2q66 10 105.5 36.5t61 65.5t28.5 88.5t7 104.5q0 25 1.5 54t9 55.5t24 48t46.5 31.5q-32 22 -35.5 54.5t8.5 70t34 78.5t40 81.5t26 78t-6 67.5z" />
    <glyph glyph-name="asciitilde" unicode="~" horiz-adv-x="498" 
d="M138 264q0 -5 -6 -7.5t-12.5 -2.5t-10 2.5t1.5 7.5q5 10 14.5 21.5t22.5 20.5t27.5 13t29.5 -1q20 -5 40.5 -18t42 -23t44 -12t48.5 13q11 0 17 -2q5 -2 5.5 -4.5t-9.5 -7.5q-20 -10 -48.5 -17t-58.5 4q-21 4 -40.5 13.5t-38.5 16t-36 4.5t-33 -21z" />
    <glyph glyph-name="Euro" unicode="&#x20ac;" horiz-adv-x="605" 
d="M468 539q2 6 11 11.5t17 5.5q3 0 6.5 -1.5t3.5 -4.5l6 -19q8 14 14.5 38.5t6.5 48.5q0 25 -10 44t-35 21q-66 -2 -124 -34.5t-105 -84t-82.5 -116t-56.5 -130.5q27 -2 54.5 -4t55.5 -2q5 0 3.5 -2t-6.5 -4.5t-11.5 -4.5t-11.5 -2h-90q-3 -11 -5.5 -21t-4.5 -20h154
q10 0 9 -2t-7.5 -4.5t-15.5 -4.5t-14 -2h-129q-9 -48 -9 -91q0 -65 35.5 -106.5t96.5 -41.5q22 0 49 8t54.5 22.5t55 35t51.5 45.5q3 3 11.5 5.5t15.5 2.5t7 -3t-6 -9q-26 -29 -58.5 -52t-66.5 -39.5t-67.5 -25.5t-61.5 -9q-33 0 -61 10t-48.5 28.5t-32.5 46.5t-12 64
q0 51 14 109h-53q-10 0 -11 2t2.5 4.5t10.5 4.5t12 2h42q2 10 5.5 20t6.5 21h-54q-20 0 -15.5 6.5t15.5 6.5q15 3 30 4t31 2q13 36 29 70t33 65q24 42 59.5 86.5t79 82t94.5 61.5t107 24q20 0 35 -9.5t24.5 -23.5t14.5 -31.5t5 -32.5q0 -17 -5.5 -36t-15 -35t-23.5 -26
t-31 -10q-12 0 -20 8t-8 28z" />
    <glyph glyph-name="a.calt" horiz-adv-x="348" 
d="M226 161q-3 -5 -13.5 -10t-18.5 -5q-6 0 -6 5q0 3 3 9t6 14.5l6 17t3 16.5t-3.5 13t-11.5 5q-20 0 -39 -14t-34.5 -34.5t-28 -43.5t-19.5 -41q-7 -23 3 -34t21 -11q16 0 39.5 15t49 33.5t49 33.5t39.5 15q18 0 24.5 -15.5t8.5 -34t2.5 -34t6.5 -15.5q4 0 14 9.5t22 21.5
t23.5 24.5t18.5 18.5q4 4 10 5t13 1q2 0 5 -0.5t3 -2.5t-1 -3q-3 -3 -18 -19.5t-35 -35.5t-40 -34.5t-33 -15.5q-14 0 -19.5 15.5t-8 33.5t-5 33.5t-9.5 15.5q-8 0 -24 -12t-35.5 -27t-40 -29t-38.5 -17q-15 -3 -27 -3q-27 0 -41 12.5t-14 35.5q0 16 12.5 45t35 57.5
t54.5 49t70 20.5q20 0 28.5 -10t8.5 -25q0 -22 -16 -49z" />
    <glyph glyph-name="r.calt" horiz-adv-x="293" 
d="M73 119q-8 -9 -15.5 -11t-13.5 -2t-6 4t5 10q14 20 28 52t15 61q2 8 7.5 16t19.5 4q12 -3 30 -10t34.5 -17.5t28 -25t8.5 -32.5q-1 -8 -9.5 -27t-18 -41t-17.5 -44t-8 -35q0 -19 17 -19q14 0 35.5 13t44.5 31.5t43.5 38t31.5 32.5q6 7 14 8t15 1q5 0 5 -3q0 -2 -3 -6
l-49 -49q-47 -47 -86 -67.5t-72 -20.5q-14 0 -23 8.5t-9 29.5q0 17 7 35t16 36t18 35.5t13 32.5q2 15 -4 24.5t-16 16t-22 11t-22 9.5q-1 -11 -5.5 -25t-10.5 -28t-13 -26.5t-13 -19.5z" />
    <glyph glyph-name="w.calt" horiz-adv-x="587" 
d="M138 79q0 37 -7.5 70t-24.5 57.5t-43.5 39t-64.5 14.5q-8 0 -15.5 -1.5t-15.5 -1.5q-9 0 -9 5q0 4 6.5 8t16.5 7t20.5 4.5t18.5 1.5q38 0 67.5 -14t49 -37.5t29.5 -55t10 -66.5q0 -17 -3 -35l5 5q8 9 19.5 20.5t25 22t27.5 18t27 7.5q20 0 33.5 -18t25.5 -41t25 -46
t32 -32q18 0 29 11t17.5 28t9.5 38.5t5.5 42.5t5.5 39t10 29q14 23 38 31.5t50 8.5q25 0 45 -13t37 -31q-1 -8 -10 -12.5t-18 -4.5q-5 0 -13.5 6.5t-18.5 15t-22 15t-24 6.5q-16 0 -24 -16t-11.5 -38.5t-6 -47t-8.5 -40.5q-5 -15 -15.5 -30.5t-25 -29t-31 -22t-33.5 -8.5
q-18 0 -30.5 10t-22 25.5t-16.5 33t-14.5 33t-16 25.5t-19.5 10q-18 -11 -36 -33t-35.5 -44t-34 -38.5t-31.5 -16.5q-7 0 -8 5q0 8 6.5 18t8.5 18q3 9 5 22t3 22z" />
    <glyph glyph-name="o.calt" horiz-adv-x="246" 
d="M115 181q2 2 12.5 5.5t16.5 3.5q-2 8 -6 14t-12 10q-2 -1 -7.5 -2.5t-10.5 -1.5q-8 0 -8 5q0 2 1 3q28 32 64.5 47.5t76.5 15.5q9 0 24 -1t15 -6t-13 -10t-20 -5t-13.5 1t-13.5 1q-42 0 -73 -27q46 -3 46 -112q0 -24 -5 -52.5t-15.5 -53t-27 -40.5t-38.5 -16
q-26 0 -43.5 23.5t-17.5 58.5q0 39 20.5 75.5t47.5 63.5zM120 -18q8 0 14.5 11.5t11 29.5t7 40.5t2.5 44.5q0 46 -9 73q-12 -12 -23.5 -30t-21 -39t-15.5 -42t-6 -39q0 -20 9 -33.5t31 -15.5z" />
    <glyph glyph-name="s.calt" horiz-adv-x="274" 
d="M200 229q48 -1 75.5 -29.5t32.5 -67t-13.5 -79t-61.5 -66.5q-19 -11 -35.5 -7t-28.5 16.5t-18.5 31.5t-4.5 38q1 4 5.5 8t9.5 6.5t8.5 2t3.5 -6.5q1 -12 4 -25t7.5 -23.5t12.5 -16.5t20 -6q17 7 31 24.5t23 40t11 46t-5.5 44t-26 34t-50.5 14.5q-21 0 -40.5 -12t-37 -28
t-32 -32t-26.5 -23q-10 -6 -16 -1t8 20q23 24 40.5 42t34 30t32.5 18t36 7h1z" />
    <glyph glyph-name="or" horiz-adv-x="439" 
d="M91 181q2 2 12.5 5.5t16.5 3.5q-2 8 -6 14t-12 10q-2 -1 -7.5 -2.5t-10.5 -1.5q-8 0 -8 5q0 2 1 3q29 32 66 47.5t78 15.5q33 0 58 -7t41.5 -18t25 -25t8.5 -28q0 -19 -8 -39.5t-17 -41.5t-17 -42t-8 -40q0 -11 3 -22t17 -11q16 0 35 10t38.5 24.5t38 31.5t32.5 32
q13 14 19.5 17.5t14.5 3.5q7 0 7 -5q0 -4 -3 -8q-19 -23 -42 -46.5t-48.5 -42.5t-53 -30.5t-54.5 -11.5q-23 0 -32 11.5t-9 28.5q0 16 5.5 36t13 39t14 35.5t9.5 27.5q2 10 3.5 17t1.5 14q0 21 -12 34t-29.5 20.5t-38 10t-37.5 2.5t-35 -4.5t-38 -19.5q46 -3 46 -112
q0 -24 -5 -52.5t-15.5 -53t-27 -40.5t-38.5 -16q-26 0 -43.5 23.5t-17.5 58.5q0 39 20.5 75.5t47.5 63.5zM96 -18q8 0 14.5 11.5t11 29.5t7 40.5t2.5 44.5q0 46 -9 73q-12 -12 -23.5 -30t-21 -39t-15.5 -42t-6 -39q0 -20 9 -33.5t31 -15.5z" />
    <glyph glyph-name="i.calt" horiz-adv-x="261" 
d="M165 209q-6 0 -20 -13t-29 -30t-28.5 -32t-18.5 -19q-13 -10 -24 -10q-9 0 -9 4t3 7q19 18 37.5 38.5t35 38.5t31.5 30t29 12q25 0 25 -20q0 -13 -7 -28q-2 -3 -12.5 -21.5t-22.5 -43t-22 -49.5t-10 -41q0 -22 19 -22q14 0 35.5 10.5t44 26.5t43.5 34.5t35 34.5q8 8 17 9
t14 1q2 0 4 -1t2 -3q-60 -69 -113 -102.5t-88 -33.5q-20 0 -32 11.5t-12 33.5q0 17 7.5 38t17 40t18.5 34t11 20q3 6 11 21.5t8 24.5zM194 461q-1 2 -1 7q0 16 16 22l16 6q2 0 3.5 0.5t3.5 0.5q16 0 16 -15v-58q0 -8 -4.5 -14.5t-10.5 -6.5t-13.5 5.5t-9.5 13.5z" />
    <glyph glyph-name="n.calt" horiz-adv-x="463" 
d="M58 104q-3 -2 -9.5 -4.5t-12 -3.5t-8 1t3.5 10q1 2 12.5 14t24.5 25q10 10 26 28t35 34.5t38.5 29t37.5 12.5q15 0 25 -9.5t10 -29.5q0 -5 -0.5 -10t-1.5 -10q-9 -38 -16 -68.5t-18 -60.5q14 16 30.5 36t34.5 38t38 30.5t41 14.5q8 0 10.5 -8t2.5 -19q0 -15 -2.5 -32.5
t-2.5 -25.5q0 -7 1.5 -18t5 -21.5t9.5 -18.5t16 -8q13 0 30 11t33 25.5t30 29.5t23 23q4 3 8.5 5t15.5 2q8 0 8 -6l-14 -14q-12 -12 -27 -28.5t-32.5 -31.5t-38 -25.5t-44.5 -10.5q-19 0 -30.5 8.5t-17.5 21.5t-8 29t-2 31q0 11 0.5 21t0.5 18q0 15 -4 15q-8 0 -21.5 -14
t-30 -34.5t-34.5 -45t-35 -45t-33 -34.5t-27 -14q-6 0 -7 3q9 17 21 47t23 64.5t19 68.5t8 60q0 19 -6 19q-13 0 -30 -14t-36 -34t-38 -41.5t-35 -35.5z" />
    <glyph glyph-name="g.calt" horiz-adv-x="322" 
d="M262 117q-13 -26 -43 -55.5t-58 -49.5q25 1 47.5 8t47.5 18q2 1 6 2t9 1q8 0 8 -6q-35 -51 -72 -108.5t-69 -118t-56 -123t-32 -124.5q4 -5 4 -14q0 -14 -9 -27t-13 -13q-10 0 -15 15.5t-5 26.5q0 48 19.5 96.5t39.5 91.5q34 72 75 139t84 134q-17 -7 -45 -14t-56 -7
q-24 0 -40 8.5t-25 21.5t-12.5 28.5t-3.5 28.5q0 28 13.5 55t35.5 48.5t49.5 35t54.5 13.5q31 0 52 -17.5t21 -47.5q0 -21 -12 -46zM86 76q3 -20 11.5 -38.5t30.5 -23.5q15 8 34 22.5t35.5 33.5t28 42t11.5 49q0 23 -10 36t-33 13q-28 0 -48 -13t-32.5 -32.5t-19.5 -43
t-8 -45.5z" />
    <glyph glyph-name="connection" horiz-adv-x="328" 
d="M412 161l18 -12l-102 -105v33zM315 126h112h-112zM84 161l18 -12l-102 -105v33zM-13 126h112h-112z" />
    <glyph glyph-name="e.calt" horiz-adv-x="307" 
d="M-80 235q0 1 -0.5 1.5t-0.5 1.5q0 5 4.5 7.5t10.5 4t12 2t9 0.5q30 -30 69 -46.5t81 -18.5q20 38 54.5 64.5t74.5 26.5q15 0 33 -7t18 -27q0 -19 -20.5 -32t-47 -21.5t-52 -13.5t-35.5 -7q-10 -24 -10 -49q0 -15 3.5 -32t12.5 -31t23 -23.5t35 -9.5q49 5 85.5 31.5
t71.5 64.5q4 4 10 4.5t11 0.5q9 0 9 -4q0 -1 -4 -5t-9 -9.5t-10.5 -11.5t-8.5 -9q-39 -41 -76 -62t-87 -21q-21 0 -39.5 7t-33 20t-23 32t-8.5 43q0 29 14 62q-5 0 -8.5 -0.5t-8.5 -0.5q-43 0 -83 16t-76 52zM230 257q-33 0 -56.5 -19t-37.5 -49q11 1 29.5 6.5t36.5 13.5
t31 17t13 17q0 4 -4 8.5t-12 5.5z" />
    </font>
</defs>
</svg>
